<svg width="24" height="24" viewBox="0 0 24 24" fill="none" xmlns="http://www.w3.org/2000/svg">
<g id="Logo">
<path id="Vector" d="M11.9246 0.75C7.04961 0.75 2.88711 3.9 1.34961 8.25H22.5746C20.9996 3.9 16.8371 0.75 11.9246 0.75Z" fill="#F2B200"/>
<path id="Vector_2" d="M11.9246 23.25C16.8371 23.25 20.9996 20.1375 22.5371 15.75H1.34961C2.88711 20.1375 7.04961 23.25 11.9246 23.25Z" fill="#83BF4F"/>
<path id="Vector_3" d="M1.35039 8.25C0.937891 9.4125 0.712891 10.6875 0.712891 12C0.712891 13.3125 0.937891 14.5875 1.35039 15.75H22.5754C22.9879 14.5875 23.2129 13.3125 23.2129 12C23.2129 10.6875 22.9879 9.4125 22.5754 8.25H1.35039Z" fill="white"/>
<path id="Vector_4" d="M11.9248 15C13.5817 15 14.9248 13.6569 14.9248 12C14.9248 10.3431 13.5817 9 11.9248 9C10.268 9 8.9248 10.3431 8.9248 12C8.9248 13.6569 10.268 15 11.9248 15Z" fill="#428BC1"/>
<path id="Vector_5" d="M11.9248 14.625C13.3746 14.625 14.5498 13.4497 14.5498 12C14.5498 10.5503 13.3746 9.375 11.9248 9.375C10.4751 9.375 9.2998 10.5503 9.2998 12C9.2998 13.4497 10.4751 14.625 11.9248 14.625Z" fill="white"/>
<g id="Group">
<path id="Vector_6" d="M10.9502 9.75C11.0537 9.75 11.1377 9.66605 11.1377 9.5625C11.1377 9.45895 11.0537 9.375 10.9502 9.375C10.8466 9.375 10.7627 9.45895 10.7627 9.5625C10.7627 9.66605 10.8466 9.75 10.9502 9.75Z" fill="#428BC1"/>
<path id="Vector_7" d="M10.3506 10.0898C10.4541 10.0898 10.5381 10.0059 10.5381 9.90234C10.5381 9.79879 10.4541 9.71484 10.3506 9.71484C10.247 9.71484 10.1631 9.79879 10.1631 9.90234C10.1631 10.0059 10.247 10.0898 10.3506 10.0898Z" fill="#428BC1"/>
<path id="Vector_8" d="M9.86328 10.5781C9.96683 10.5781 10.0508 10.4942 10.0508 10.3906C10.0508 10.2871 9.96683 10.2031 9.86328 10.2031C9.75973 10.2031 9.67578 10.2871 9.67578 10.3906C9.67578 10.4942 9.75973 10.5781 9.86328 10.5781Z" fill="#428BC1"/>
<path id="Vector_9" d="M9.52539 11.1758C9.62894 11.1758 9.71289 11.0918 9.71289 10.9883C9.71289 10.8847 9.62894 10.8008 9.52539 10.8008C9.42184 10.8008 9.33789 10.8847 9.33789 10.9883C9.33789 11.0918 9.42184 11.1758 9.52539 11.1758Z" fill="#428BC1"/>
<path id="Vector_10" d="M9.33789 11.8516C9.44144 11.8516 9.52539 11.7676 9.52539 11.6641C9.52539 11.5605 9.44144 11.4766 9.33789 11.4766C9.23434 11.4766 9.15039 11.5605 9.15039 11.6641C9.15039 11.7676 9.23434 11.8516 9.33789 11.8516Z" fill="#428BC1"/>
<path id="Vector_11" d="M9.33789 12.5273C9.44144 12.5273 9.52539 12.4434 9.52539 12.3398C9.52539 12.2363 9.44144 12.1523 9.33789 12.1523C9.23434 12.1523 9.15039 12.2363 9.15039 12.3398C9.15039 12.4434 9.23434 12.5273 9.33789 12.5273Z" fill="#428BC1"/>
<path id="Vector_12" d="M9.52539 13.2031C9.62894 13.2031 9.71289 13.1192 9.71289 13.0156C9.71289 12.9121 9.62894 12.8281 9.52539 12.8281C9.42184 12.8281 9.33789 12.9121 9.33789 13.0156C9.33789 13.1192 9.42184 13.2031 9.52539 13.2031Z" fill="#428BC1"/>
<path id="Vector_13" d="M9.86328 13.8008C9.96683 13.8008 10.0508 13.7168 10.0508 13.6133C10.0508 13.5097 9.96683 13.4258 9.86328 13.4258C9.75973 13.4258 9.67578 13.5097 9.67578 13.6133C9.67578 13.7168 9.75973 13.8008 9.86328 13.8008Z" fill="#428BC1"/>
<path id="Vector_14" d="M10.3506 14.2891C10.4541 14.2891 10.5381 14.2051 10.5381 14.1016C10.5381 13.998 10.4541 13.9141 10.3506 13.9141C10.247 13.9141 10.1631 13.998 10.1631 14.1016C10.1631 14.2051 10.247 14.2891 10.3506 14.2891Z" fill="#428BC1"/>
<path id="Vector_15" d="M10.9502 14.625C11.0537 14.625 11.1377 14.5411 11.1377 14.4375C11.1377 14.3339 11.0537 14.25 10.9502 14.25C10.8466 14.25 10.7627 14.3339 10.7627 14.4375C10.7627 14.5411 10.8466 14.625 10.9502 14.625Z" fill="#428BC1"/>
<path id="Vector_16" d="M11.5879 14.7773C11.6914 14.7773 11.7754 14.6934 11.7754 14.5898C11.7754 14.4863 11.6914 14.4023 11.5879 14.4023C11.4843 14.4023 11.4004 14.4863 11.4004 14.5898C11.4004 14.6934 11.4843 14.7773 11.5879 14.7773Z" fill="#428BC1"/>
<path id="Vector_17" d="M12.1133 14.6273C12.1133 14.5148 12.1883 14.4398 12.2633 14.4023C12.3758 14.4023 12.4508 14.4773 12.4883 14.5523C12.4883 14.6648 12.4133 14.7398 12.3383 14.7773C12.1883 14.8148 12.1133 14.7398 12.1133 14.6273Z" fill="#428BC1"/>
<path id="Vector_18" d="M12.9375 14.625C13.0411 14.625 13.125 14.5411 13.125 14.4375C13.125 14.3339 13.0411 14.25 12.9375 14.25C12.8339 14.25 12.75 14.3339 12.75 14.4375C12.75 14.5411 12.8339 14.625 12.9375 14.625Z" fill="#428BC1"/>
<path id="Vector_19" d="M13.5381 14.2891C13.6416 14.2891 13.7256 14.2051 13.7256 14.1016C13.7256 13.998 13.6416 13.9141 13.5381 13.9141C13.4345 13.9141 13.3506 13.998 13.3506 14.1016C13.3506 14.2051 13.4345 14.2891 13.5381 14.2891Z" fill="#428BC1"/>
<path id="Vector_20" d="M14.0254 13.8008C14.1289 13.8008 14.2129 13.7168 14.2129 13.6133C14.2129 13.5097 14.1289 13.4258 14.0254 13.4258C13.9218 13.4258 13.8379 13.5097 13.8379 13.6133C13.8379 13.7168 13.9218 13.8008 14.0254 13.8008Z" fill="#428BC1"/>
<path id="Vector_21" d="M14.3633 13.2031C14.4668 13.2031 14.5508 13.1192 14.5508 13.0156C14.5508 12.9121 14.4668 12.8281 14.3633 12.8281C14.2597 12.8281 14.1758 12.9121 14.1758 13.0156C14.1758 13.1192 14.2597 13.2031 14.3633 13.2031Z" fill="#428BC1"/>
<path id="Vector_22" d="M14.5508 12.5273C14.6543 12.5273 14.7383 12.4434 14.7383 12.3398C14.7383 12.2363 14.6543 12.1523 14.5508 12.1523C14.4472 12.1523 14.3633 12.2363 14.3633 12.3398C14.3633 12.4434 14.4472 12.5273 14.5508 12.5273Z" fill="#428BC1"/>
<path id="Vector_23" d="M14.5502 11.8516C14.4377 11.8516 14.3627 11.7766 14.3252 11.7016C14.3252 11.5891 14.4002 11.5141 14.4752 11.4766C14.5877 11.4766 14.6627 11.5516 14.7002 11.6266C14.7377 11.7391 14.6627 11.8141 14.5502 11.8516Z" fill="#428BC1"/>
<path id="Vector_24" d="M14.3633 11.1758C14.4668 11.1758 14.5508 11.0918 14.5508 10.9883C14.5508 10.8847 14.4668 10.8008 14.3633 10.8008C14.2597 10.8008 14.1758 10.8847 14.1758 10.9883C14.1758 11.0918 14.2597 11.1758 14.3633 11.1758Z" fill="#428BC1"/>
<path id="Vector_25" d="M14.0254 10.5781C14.1289 10.5781 14.2129 10.4942 14.2129 10.3906C14.2129 10.2871 14.1289 10.2031 14.0254 10.2031C13.9218 10.2031 13.8379 10.2871 13.8379 10.3906C13.8379 10.4942 13.9218 10.5781 14.0254 10.5781Z" fill="#428BC1"/>
<path id="Vector_26" d="M13.5381 10.0898C13.6416 10.0898 13.7256 10.0059 13.7256 9.90234C13.7256 9.79879 13.6416 9.71484 13.5381 9.71484C13.4345 9.71484 13.3506 9.79879 13.3506 9.90234C13.3506 10.0059 13.4345 10.0898 13.5381 10.0898Z" fill="#428BC1"/>
<path id="Vector_27" d="M13.1254 9.63944C13.0879 9.75194 12.9754 9.78944 12.8629 9.75194C12.7504 9.71444 12.7129 9.60194 12.7504 9.48944C12.7879 9.37694 12.9004 9.33944 13.0129 9.37694C13.1254 9.45194 13.1629 9.56444 13.1254 9.63944ZM12.4504 9.41444C12.4504 9.52694 12.3379 9.60194 12.2254 9.56444C12.1129 9.56444 12.0379 9.45194 12.0754 9.33944C12.0754 9.22694 12.1879 9.15194 12.3004 9.18944C12.4129 9.22694 12.4879 9.33944 12.4504 9.41444ZM11.7754 9.37694C11.7754 9.48944 11.7004 9.56444 11.6254 9.60194C11.5129 9.60194 11.4379 9.52694 11.4004 9.45194C11.4004 9.33944 11.4754 9.26444 11.5504 9.22694C11.6629 9.18944 11.7754 9.26444 11.7754 9.37694Z" fill="#428BC1"/>
<path id="Vector_28" d="M11.9258 12.5625C12.2364 12.5625 12.4883 12.3107 12.4883 12C12.4883 11.6893 12.2364 11.4375 11.9258 11.4375C11.6151 11.4375 11.3633 11.6893 11.3633 12C11.3633 12.3107 11.6151 12.5625 11.9258 12.5625Z" fill="#428BC1"/>
<path id="Vector_29" d="M11.925 9.375L11.85 10.9875L11.925 12L12.0375 10.9875L11.925 9.375ZM11.25 9.45L11.5875 11.0625L11.925 12L11.775 10.9875L11.25 9.45Z" fill="#428BC1"/>
<path id="Vector_30" d="M10.6129 9.71484L11.3629 11.1773L11.9254 12.0023L11.5129 11.0648L10.6129 9.71484ZM10.0879 10.1273L11.1754 11.3648L11.9254 12.0023L11.2879 11.2148L10.0879 10.1273Z" fill="#428BC1"/>
<path id="Vector_31" d="M9.67578 10.6875L11.0258 11.5875L11.9258 12L11.1008 11.4L9.67578 10.6875Z" fill="#428BC1"/>
<path id="Vector_32" d="M9.41328 11.3281L10.9508 11.8156L11.9258 12.0031L10.9883 11.6656L9.41328 11.3281ZM9.30078 12.0031L10.9508 12.0781L11.9258 12.0031L10.9508 11.9281L9.30078 12.0031Z" fill="#428BC1"/>
<path id="Vector_33" d="M9.41309 12.675L10.9881 12.3375L11.9256 12L10.9506 12.1875L9.41309 12.675ZM9.67559 13.3125L11.1006 12.6L11.9256 12L11.0256 12.4125L9.67559 13.3125Z" fill="#428BC1"/>
<path id="Vector_34" d="M10.0879 13.8375L11.2879 12.7875L11.9254 12L11.1754 12.6375L10.0879 13.8375ZM10.6129 14.2875L11.5129 12.9L11.9254 12L11.3629 12.825L10.6129 14.2875Z" fill="#428BC1"/>
<path id="Vector_35" d="M11.25 14.55L11.775 13.0125L11.925 12L11.5875 12.9375L11.25 14.55ZM11.925 14.625L12.0375 13.0125L11.925 12L11.85 13.0125L11.925 14.625ZM12.6 14.55L12.3 12.9375L11.925 12L12.1125 13.0125L12.6 14.55Z" fill="#428BC1"/>
<path id="Vector_36" d="M13.2383 14.2875L12.5258 12.825L11.9258 12L12.3758 12.9375L13.2383 14.2875ZM13.8008 13.8375L12.7133 12.6375L11.9258 12L12.6008 12.7875L13.8008 13.8375Z" fill="#428BC1"/>
<path id="Vector_37" d="M14.2133 13.3156L12.8633 12.4156L11.9258 12.0031L12.7508 12.6031L14.2133 13.3156ZM14.4758 12.6781L12.9383 12.1906L11.9258 12.0031L12.9008 12.3406L14.4758 12.6781ZM14.5508 12.0031L12.9383 11.8906L11.9258 12.0031L12.9383 12.0781L14.5508 12.0031ZM14.4758 11.3281L12.9008 11.6656L11.9258 12.0031L12.9383 11.8156L14.4758 11.3281Z" fill="#428BC1"/>
<path id="Vector_38" d="M14.2133 10.6891L12.7508 11.4016L11.9258 12.0016L12.8633 11.5891L14.2133 10.6891ZM13.8008 10.1641L12.6008 11.2141L11.9258 12.0016L12.7133 11.3641L13.8008 10.1641Z" fill="#428BC1"/>
<path id="Vector_39" d="M13.2383 9.71484L12.3758 11.1023L11.9258 12.0023L12.5258 11.1773L13.2383 9.71484Z" fill="#428BC1"/>
<path id="Vector_40" d="M12.6383 9.45312L12.1133 10.9906L11.9258 12.0031L12.3008 11.0656L12.6383 9.45312Z" fill="#428BC1"/>
</g>
</g>
</svg>
