<svg width="178" height="183" viewBox="0 0 178 183" fill="none" xmlns="http://www.w3.org/2000/svg">
<g id="Illustration" clip-path="url(#clip0_708_16996)">
<path id="Vector" d="M160.295 177.291C160.969 177.337 161.342 176.439 160.832 175.916L160.781 175.7C160.788 175.683 160.795 175.666 160.801 175.648C161.483 173.907 163.793 173.919 164.469 175.663C165.069 177.211 165.833 178.762 166.021 180.398C166.105 181.121 166.067 181.857 165.917 182.566C167.323 179.276 168.063 175.684 168.063 172.071C168.063 171.164 168.016 170.256 167.922 169.351C167.844 168.61 167.736 167.874 167.597 167.145C166.845 163.203 165.216 159.448 162.866 156.312C161.737 155.65 160.795 154.616 160.226 153.377C160.021 152.93 159.861 152.449 159.785 151.959C159.914 151.977 160.27 149.879 160.173 149.751C160.352 149.459 160.673 149.315 160.868 149.03C161.841 147.617 163.182 147.864 163.882 149.784C165.377 150.593 165.391 151.934 164.474 153.223C163.89 154.044 163.81 155.154 163.298 156.032C163.351 156.104 163.406 156.174 163.458 156.246C164.424 157.574 165.26 159.001 165.964 160.5C165.765 158.834 166.059 156.827 166.56 155.533C167.131 154.059 168.2 152.817 169.141 151.543C170.272 150.012 172.591 150.68 172.79 152.62C172.792 152.639 172.794 152.658 172.796 152.677C172.656 152.761 172.519 152.851 172.385 152.946C171.622 153.487 171.886 154.754 172.79 154.904L172.811 154.907C172.76 155.447 172.674 155.982 172.547 156.508C173.755 161.513 171.147 163.335 167.424 163.417C167.342 163.462 167.262 163.508 167.18 163.55C167.557 164.688 167.858 165.856 168.082 167.039C168.282 168.084 168.421 169.141 168.499 170.202C168.596 171.541 168.587 172.887 168.482 174.223L168.488 174.176C168.756 172.704 169.502 171.329 170.585 170.376C172.199 168.956 174.479 168.433 176.219 167.291C177.057 166.742 178.131 167.452 177.985 168.493L177.978 168.542C177.718 168.655 177.466 168.786 177.221 168.933C177.081 169.018 176.944 169.107 176.81 169.202C176.047 169.743 176.311 171.011 177.215 171.16L177.236 171.164C177.251 171.166 177.263 171.168 177.278 171.171C176.833 172.302 176.214 173.352 175.438 174.257C174.683 178.626 171.44 179.04 167.97 177.768H167.968C167.589 179.538 167.034 181.268 166.322 182.916H160.443C160.422 182.846 160.403 182.774 160.384 182.704C160.927 182.74 161.475 182.706 162.01 182.6C161.574 182.026 161.138 181.448 160.702 180.875C160.691 180.863 160.683 180.852 160.674 180.841C160.453 180.547 160.23 180.256 160.009 179.963L160.008 179.962C159.995 179.061 160.095 178.163 160.295 177.292L160.295 177.291V177.291Z" fill="#F2F2F2"/>
<path id="Vector_2" d="M52.1211 182.584C52.1211 182.815 52.294 183 52.5094 183H177.565C177.78 183 177.953 182.815 177.953 182.584C177.953 182.353 177.78 182.168 177.565 182.168H52.5094C52.294 182.168 52.1211 182.353 52.1211 182.584Z" fill="#CCCCCC"/>
<g id="Group">
<path id="Vector_3" d="M71.0992 182.823H13.5374C6.51875 182.823 0.808594 176.705 0.808594 169.185V36.6457C0.808594 29.1258 6.51875 23.0078 13.5374 23.0078H71.0992C78.1178 23.0078 83.8279 29.1258 83.8279 36.6457V169.185C83.8279 176.705 78.1178 182.823 71.0992 182.823Z" fill="#3F3D56"/>
<path id="Vector_4" d="M83.8275 71.7617C83.5306 71.7617 83.2891 72.0205 83.2891 72.3387V90.801C83.2891 91.1192 83.5306 91.378 83.8275 91.378C84.1245 91.378 84.366 91.1192 84.366 90.801V72.3387C84.366 72.0205 84.1245 71.7617 83.8275 71.7617Z" fill="#3F3D56"/>
<path id="Vector_5" d="M82.6156 36.6456V169.182C82.6156 175.728 77.8608 181.082 71.8485 181.497H71.8458C71.757 181.503 71.6681 181.509 71.5766 181.512C71.4177 181.52 71.2589 181.523 71.0973 181.523C71.0973 181.523 70.505 181.477 69.4226 181.391C68.3295 181.304 66.7382 181.174 64.7539 181.004C64.1589 180.955 63.5315 180.9 62.8692 180.842C61.5499 180.727 60.1013 180.6 58.5478 180.456C57.9285 180.401 57.2877 180.341 56.6335 180.28C53.2894 179.971 49.5442 179.611 45.5944 179.201C44.9267 179.135 44.2536 179.065 43.5751 178.993C43.3974 178.973 43.2169 178.956 43.0366 178.936C40.2202 178.639 2.01953 170.729 2.01953 169.182V36.6456C2.01953 29.829 7.17559 24.3047 13.5379 24.3047H20.4144C21.5129 24.3047 22.396 25.222 22.4903 26.3961C22.4983 26.474 22.5064 26.5519 22.5199 26.6298C22.7191 27.8097 23.7288 28.6318 24.8488 28.6318H59.7863C60.9064 28.6318 61.916 27.8097 62.1153 26.6298C62.1287 26.5519 62.1368 26.474 62.1449 26.3961C62.2391 25.222 63.1223 24.3047 64.2208 24.3047H71.0973C77.4596 24.3047 82.6156 29.829 82.6156 36.6456Z" fill="white"/>
<path id="Vector_6" d="M0.53849 57.9141C0.241504 57.9141 0 58.1728 0 58.491V63.1066C0 63.4248 0.241507 63.6835 0.53849 63.6835C0.835472 63.6835 1.07698 63.4248 1.07698 63.1066V58.491C1.07698 58.1728 0.835472 57.9141 0.53849 57.9141Z" fill="#3F3D56"/>
<path id="Vector_7" d="M0.53849 71.7617C0.241504 71.7617 0 72.0205 0 72.3387V81.2814C0 81.5996 0.241507 81.8583 0.53849 81.8583C0.835472 81.8583 1.07698 81.5996 1.07698 81.2814V72.3387C1.07698 72.0205 0.835472 71.7617 0.53849 71.7617Z" fill="#3F3D56"/>
<path id="Vector_8" d="M0.53849 84.4531C0.241504 84.4531 0 84.7119 0 85.0301V93.9728C0 94.291 0.241507 94.5497 0.53849 94.5497C0.835472 94.5497 1.07698 94.291 1.07698 93.9728V85.0301C1.07698 84.7119 0.835472 84.4531 0.53849 84.4531Z" fill="#3F3D56"/>
<path id="Vector_9" d="M20.2275 26.3242H9.92934C9.87344 26.3242 9.82812 26.3728 9.82812 26.4327V27.6582C9.82812 27.718 9.87344 27.7666 9.92934 27.7666H20.2275C20.2834 27.7666 20.3287 27.718 20.3287 27.6582V26.4327C20.3287 26.3728 20.2834 26.3242 20.2275 26.3242Z" fill="#E6E6E6"/>
<path id="Vector_10" d="M65.9207 27.7687C66.5155 27.7687 66.9977 27.2521 66.9977 26.6148C66.9977 25.9776 66.5155 25.4609 65.9207 25.4609C65.3259 25.4609 64.8438 25.9776 64.8438 26.6148C64.8438 27.2521 65.3259 27.7687 65.9207 27.7687Z" fill="#E6E6E6"/>
<path id="Vector_11" d="M68.8856 27.7687C69.4804 27.7687 69.9626 27.2521 69.9626 26.6148C69.9626 25.9776 69.4804 25.4609 68.8856 25.4609C68.2908 25.4609 67.8086 25.9776 67.8086 26.6148C67.8086 27.2521 68.2908 27.7687 68.8856 27.7687Z" fill="#E6E6E6"/>
<path id="Vector_12" d="M71.8465 27.7687C72.4413 27.7687 72.9235 27.2521 72.9235 26.6148C72.9235 25.9776 72.4413 25.4609 71.8465 25.4609C71.2517 25.4609 70.7695 25.9776 70.7695 26.6148C70.7695 27.2521 71.2517 27.7687 71.8465 27.7687Z" fill="#E6E6E6"/>
</g>
<path id="Vector_13" d="M65.0217 104.351H19.3441C18.6245 104.351 18.0391 103.724 18.0391 102.953C18.0391 102.182 18.6245 101.555 19.3441 101.555H65.0217C65.7413 101.555 66.3268 102.182 66.3268 102.953C66.3268 103.724 65.7413 104.351 65.0217 104.351Z" fill="#E6E6E6"/>
<path id="Vector_14" d="M42.3454 158.534C52.7966 158.534 61.269 149.457 61.269 138.259C61.269 127.062 52.7966 117.984 42.3454 117.984C31.8942 117.984 23.4219 127.062 23.4219 138.259C23.4219 149.457 31.8942 158.534 42.3454 158.534Z" fill="#6C63FF"/>
<path id="Vector_15" d="M45.3552 131.641C43.7582 131.711 41.9527 131.829 40.7723 133.142C39.7467 134.282 39.522 135.975 40.562 137.193C41.6046 138.414 43.2258 138.579 44.4277 139.532C45.839 140.65 45.6323 142.863 44.2666 143.923C42.6561 145.173 40.5768 144.59 39.1044 143.401C38.7272 143.096 38.3609 143.779 38.7339 144.08C40.053 145.145 41.7743 145.739 43.4053 145.229C44.8772 144.769 46.0182 143.483 46.1343 141.81C46.1897 141.012 45.9778 140.201 45.5145 139.571C45.0254 138.906 44.321 138.497 43.6089 138.163C42.383 137.59 40.2722 136.848 40.6286 134.981C41.0606 132.718 43.6315 132.503 45.3552 132.428C45.8259 132.407 45.8284 131.62 45.3552 131.641L45.3552 131.641Z" fill="white"/>
<path id="Vector_16" d="M42.3907 130.571L42.3203 147.838C42.3183 148.344 43.0524 148.345 43.0544 147.838L43.1248 130.571C43.1269 130.065 42.3928 130.064 42.3907 130.571Z" fill="white"/>
<path id="Vector_17" d="M142.607 0H49.3072C45.8846 0 43.1016 2.98182 43.1016 6.6488V75.1505C43.1016 78.8175 45.8846 81.7993 49.3072 81.7993H142.607C146.029 81.7993 148.812 78.8175 148.812 75.1505V6.6488C148.812 2.98182 146.029 0 142.607 0Z" fill="white"/>
<path id="Vector_18" d="M95.5265 40.7318C101.293 40.7318 105.967 35.7236 105.967 29.5456C105.967 23.3676 101.293 18.3594 95.5265 18.3594C89.7603 18.3594 85.0859 23.3676 85.0859 29.5456C85.0859 35.7236 89.7603 40.7318 95.5265 40.7318Z" fill="#6C63FF"/>
<path id="Vector_19" d="M97.5074 24.5511C96.215 24.6081 94.7601 24.6959 93.7825 25.7264C92.9727 26.58 92.6895 27.9087 93.4336 28.9138C94.2171 29.9719 95.5201 30.1727 96.5428 30.8489C97.1785 31.2692 97.5997 31.9059 97.6134 32.7241C97.6262 33.4901 97.2962 34.2058 96.7446 34.6859C95.3912 35.8639 93.5456 35.3763 92.2652 34.3461C92.0133 34.1434 91.7691 34.5984 92.0182 34.7989C93.0786 35.6521 94.4439 36.1476 95.7634 35.7805C96.9779 35.4426 97.9563 34.4189 98.0879 33.051C98.2266 31.6093 97.3431 30.6276 96.1974 30.0645C95.1502 29.5497 93.3135 29.0012 93.4866 27.402C93.7068 25.3687 96.03 25.1406 97.5074 25.0754C97.8212 25.0616 97.8228 24.5371 97.5074 24.5511V24.5511Z" fill="white"/>
<path id="Vector_20" d="M95.2618 23.6009L95.2031 37.9886C95.2018 38.326 95.6912 38.3265 95.6925 37.9886L95.7512 23.6009C95.7526 23.2635 95.2632 23.263 95.2618 23.6009Z" fill="white"/>
<path id="Vector_21" d="M142.607 0H49.3072C45.8846 0 43.1016 2.98182 43.1016 6.6488V75.1505C43.1016 78.8175 45.8846 81.7993 49.3072 81.7993H142.607C146.029 81.7993 148.812 78.8175 148.812 75.1505V6.6488C148.812 2.98182 146.029 0 142.607 0ZM148.16 75.1505C148.16 78.433 145.671 81.1002 142.607 81.1002H49.3072C46.2435 81.1002 43.7541 78.433 43.7541 75.1505V6.6488C43.7541 3.36636 46.2435 0.69914 49.3072 0.69914H142.607C145.671 0.69914 148.16 3.36636 148.16 6.6488V75.1505Z" fill="#3F3D56"/>
<g id="Group_2">
<path id="Vector_22" d="M85.2013 6.76562H76.0462C75.5862 6.76562 75.2109 7.16764 75.2109 7.66052C75.2109 8.15691 75.5862 8.55892 76.0462 8.55892H85.2013C85.6613 8.55892 86.0365 8.15691 86.0365 7.66052C86.0365 7.16764 85.6613 6.76562 85.2013 6.76562Z" fill="#E6E6E6"/>
<path id="Vector_23" d="M100.537 6.76562H91.3821C90.9221 6.76562 90.5469 7.16764 90.5469 7.66052C90.5469 8.15691 90.9221 8.55892 91.3821 8.55892H100.537C100.997 8.55892 101.372 8.15691 101.372 7.66052C101.372 7.16764 100.997 6.76562 100.537 6.76562Z" fill="#E6E6E6"/>
<path id="Vector_24" d="M115.869 6.76562H106.714C106.254 6.76562 105.879 7.16764 105.879 7.66052C105.879 8.15691 106.254 8.55892 106.714 8.55892H115.869C116.329 8.55892 116.705 8.15691 116.705 7.66052C116.705 7.16764 116.329 6.76562 115.869 6.76562Z" fill="#E6E6E6"/>
</g>
<path id="Vector_25" d="M130.97 47.0234H60.9463C58.0328 47.0234 55.6641 49.5613 55.6641 52.683V57.7937C55.6641 60.9153 58.0328 63.4532 60.9463 63.4532H130.97C133.884 63.4532 136.252 60.9153 136.252 57.7937V52.683C136.252 49.5613 133.884 47.0234 130.97 47.0234Z" fill="#6C63FF"/>
<path id="Vector_26" d="M23.8766 73.9292L21.1914 72.5664C22.2927 74.2132 23.2417 76.785 23.7498 78.8316C24.61 76.9252 25.9967 74.5927 27.3693 73.1993L24.5314 73.9815C26.2801 64.7991 32.8575 58.207 40.3895 58.207V57.5078C32.5221 57.5078 25.6621 64.376 23.8766 73.9292Z" fill="#3F3D56"/>
<path id="Vector_27" d="M36.2359 87.9216H19.2699C18.5503 87.9216 17.9648 87.2943 17.9648 86.5233C17.9648 85.7523 18.5503 85.125 19.2699 85.125H36.2359C36.9555 85.125 37.5409 85.7523 37.5409 86.5233C37.5409 87.2943 36.9555 87.9216 36.2359 87.9216Z" fill="#E6E6E6"/>
<g id="Group_3">
<path id="Vector_28" d="M149.098 83.3668L148.927 97.6429L145.611 110.369L142.961 109.31L144.138 97.645L143.983 81.8594L149.098 83.3668Z" fill="#FFB6B6"/>
<path id="Vector_29" d="M145.599 112.423C145.91 110.593 145.34 108.949 144.326 108.751C143.312 108.553 142.237 109.876 141.926 111.706C141.615 113.536 142.185 115.18 143.199 115.378C144.214 115.576 145.288 114.252 145.599 112.423Z" fill="#FFB6B6"/>
<path id="Vector_30" d="M145.073 66.3672C145.073 66.3672 150.752 66.4509 150.748 69.6834C150.745 71.5084 150.379 88.0789 149.361 98.1453C148.576 105.908 147.077 107.933 147.077 107.933L143.488 99.194L145.073 66.3672Z" fill="#E6E6E6"/>
<path id="Vector_31" d="M144.927 95.5342H125.746C127.354 91.6905 128.342 88.03 126.797 85.1182L144.927 83.9922C144.021 87.9229 143.91 91.7804 144.927 95.5342Z" fill="#FFB6B6"/>
<path id="Vector_32" d="M142.562 61.4732L134.943 60.9102L131.79 65.1328L130.191 65.4442C127.795 65.911 126.089 68.2019 126.196 70.8086L126.818 85.9494L145.03 87.3723L149.394 67.6558L144.139 65.4144L142.562 61.4732V61.4732Z" fill="#E6E6E6"/>
<g id="Group_4">
<path id="Vector_33" d="M96.0956 66.0414C96.6362 66.5625 97.0221 67.1712 97.2259 67.7615L102.669 72.3768L100.543 75.0873L95.2509 70.1138C94.6815 69.9588 94.0758 69.6118 93.5352 69.0907C92.3002 67.9003 91.8722 66.2528 92.5792 65.4107C93.2862 64.5687 94.8605 64.8511 96.0955 66.0414L96.0956 66.0414Z" fill="#FFB6B6"/>
<path id="Vector_34" d="M134.576 69.9286V69.9286L113.722 85.0159L98.7734 73.8702L101.018 69.5146L112.783 76.8404L123.633 67.9143C127.497 64.026 132.339 64.7797 134.576 69.9286H134.576Z" fill="#E6E6E6"/>
</g>
<path id="Vector_35" d="M138.301 59.6445C141.423 59.6445 143.954 56.9329 143.954 53.5879C143.954 50.2429 141.423 47.5312 138.301 47.5312C135.179 47.5312 132.648 50.2429 132.648 53.5879C132.648 56.9329 135.179 59.6445 138.301 59.6445Z" fill="#FFB6B6"/>
<path id="Vector_36" d="M145.987 52.0991V53.2737L139.612 51.3511L134.832 52.4242C134.777 51.6447 134.561 50.8791 134.202 50.201C134.452 51.2887 134.48 52.1302 134.215 52.5641L133.573 52.7074C133.468 52.4033 133.266 52.1376 133.002 51.9768C132.976 51.9593 132.943 51.9453 132.914 51.9558C132.868 51.9733 132.865 52.0362 132.865 52.0852C132.871 52.3438 132.878 52.6025 132.887 52.8612L131.041 53.2737V52.0991C129.269 47.8281 133.939 44.1323 138.516 44.094C140.581 44.0767 142.447 44.9889 143.801 46.4361C145.152 47.8868 145.987 49.8864 145.987 52.0991Z" fill="#2F2E41"/>
<path id="Vector_37" d="M149.57 65.8727L149.088 65.8299C149.123 65.6613 149.157 65.4947 149.188 65.326C149.455 63.9104 148.868 62.1084 148.825 60.7483C148.598 62.1852 148.986 63.9531 148.585 65.3175C148.54 65.4691 146.798 66.4474 146.75 66.5969C144.822 65.8414 142.814 63.4277 140.541 64.8375C139.196 65.6713 137.662 65.3058 136.135 64.924C135.757 64.8295 135.705 62.8302 135.331 62.7516C134.661 62.6109 133.677 64.4284 133.047 64.4994L135.657 53.6628C135.657 47.7676 135.147 41.5825 142.117 43.6671C143.87 44.1913 145.605 44.6023 146.899 46.1524C148.193 47.7046 149.114 49.874 149.44 52.3443C149.637 53.8347 150.865 58.895 149.57 65.8727Z" fill="#2F2E41"/>
<g id="Group_5">
<path id="Vector_38" d="M145.069 174.847L141.957 174.925L140.223 159.948L144.814 159.832L145.069 174.847Z" fill="#FFB7B7"/>
<path id="Vector_39" d="M134.395 181.8C134.395 182.363 134.768 182.82 135.228 182.82H141.404C141.404 182.82 142.011 180.202 144.489 179.076L144.66 182.82H147.846L147.46 176.8C147.46 176.8 148.313 173.579 146.543 171.932C144.773 170.286 146.206 170.515 146.206 170.515L145.51 166.789L140.696 167.396L140.66 173.245L138.324 179.05L134.897 180.864C134.592 181.026 134.395 181.393 134.395 181.8H134.395H134.395Z" fill="#2F2E41"/>
</g>
<g id="Group_6">
<path id="Vector_40" d="M135.603 172.407L132.612 173.329L127.387 159.314L131.801 157.953L135.603 172.407Z" fill="#FFB7B7"/>
<path id="Vector_41" d="M126.926 182.038C127.059 182.583 127.528 182.923 127.973 182.798L133.947 181.119C133.947 181.119 133.915 178.421 136.045 176.658L137.097 180.233L140.179 179.367L138.38 173.649C138.38 173.649 138.441 170.302 136.34 169.19C134.237 168.079 135.678 167.911 135.678 167.911L134.122 164.496L129.609 166.392L130.96 172.059L130.076 178.31L127.19 180.996C126.934 181.235 126.83 181.645 126.926 182.038L126.926 182.038L126.926 182.038Z" fill="#2F2E41"/>
</g>
<path id="Vector_42" d="M143.161 94.6523L145.119 95.3515C148.18 101.408 149.477 109.451 149.305 119.15L145.828 162.71H140.139L135.976 114.182L128.635 132.396L134.006 162.71L128.635 163.297L117.816 131.775L125.351 95.1399L143.161 94.6523Z" fill="#2F2E41"/>
</g>
</g>
<defs>
<clipPath id="clip0_708_16996">
<rect width="178" height="183" fill="white"/>
</clipPath>
</defs>
</svg>
