<svg width="184" height="60" viewBox="0 0 184 60" fill="none" xmlns="http://www.w3.org/2000/svg">
<g clip-path="url(#clip0_297_12429)">
<path d="M98.195 42H85.8043C85.6781 42.0001 85.5531 41.9753 85.4365 41.9271C85.3199 41.8788 85.2139 41.8081 85.1247 41.7188C85.0354 41.6296 84.9647 41.5236 84.9164 41.407C84.8682 41.2904 84.8434 41.1654 84.8435 41.0393V31.8713C84.8435 31.3403 85.2733 30.9068 85.8043 30.9068H86.9683V29.4263C86.9683 26.6528 89.2258 24.3953 91.9993 24.3953C94.7728 24.3953 97.0303 26.6528 97.0303 29.4263V30.9068H98.1943C98.7253 30.9068 99.155 31.3403 99.155 31.8713V41.0393C99.1551 41.1654 99.1303 41.2904 99.0821 41.407C99.0338 41.5236 98.9631 41.6296 98.8738 41.7188C98.7846 41.8081 98.6786 41.8788 98.562 41.9271C98.4454 41.9753 98.3204 42.0001 98.1943 42H98.195ZM92.6293 36.93C93.77 36.2858 93.3125 34.5435 92 34.5435C90.6913 34.5473 90.2345 36.282 91.3708 36.93V38.172C91.3708 39.0083 92.6285 39.0083 92.6285 38.172L92.6293 36.93ZM89.8558 30.906H94.1488V29.4255C94.1488 28.242 93.1843 27.2813 92 27.2813C90.8158 27.2813 89.8558 28.242 89.8558 29.4255V30.906ZM84.5473 29.5433H81.5593C81.071 29.5433 80.6803 29.1488 80.6803 28.6643C80.6803 28.1798 81.071 27.7853 81.5593 27.7853H84.5473C85.0318 27.7853 85.4263 28.1798 85.4263 28.6643C85.4263 29.1488 85.0318 29.5433 84.5473 29.5433ZM86.6525 24.84C86.4492 24.8404 86.2525 24.7683 86.0975 24.6368L83.7305 22.6913C83.6415 22.6181 83.5678 22.528 83.5138 22.4262C83.4597 22.3245 83.4262 22.213 83.4154 22.0983C83.4045 21.9836 83.4164 21.8679 83.4504 21.7578C83.4844 21.6477 83.5398 21.5454 83.6135 21.4568C83.6864 21.3675 83.7763 21.2935 83.8779 21.2391C83.9795 21.1846 84.0909 21.1509 84.2056 21.1396C84.3204 21.1284 84.4362 21.14 84.5464 21.1737C84.6567 21.2074 84.7592 21.2625 84.848 21.336L87.215 23.2815C87.8518 23.805 87.4768 24.84 86.6525 24.8363V24.84ZM92 22.7693C91.767 22.7689 91.5437 22.6761 91.3789 22.5114C91.2141 22.3466 91.1214 22.1233 91.121 21.8903V18.8783C91.121 18.3938 91.5155 17.9993 92 17.9993C92.4845 17.9993 92.879 18.3938 92.879 18.8783V21.8903C92.879 22.3748 92.4845 22.7693 92 22.7693ZM97.3475 24.84C96.5195 24.84 96.1483 23.805 96.785 23.2815L99.152 21.336C100.058 20.5935 101.172 21.9495 100.27 22.6958L97.9025 24.6413C97.7464 24.7703 97.5501 24.8409 97.3475 24.8408V24.84ZM102.442 29.5433H99.4258C98.9375 29.5433 98.5468 29.1488 98.5468 28.6643C98.5468 28.1798 98.9375 27.7853 99.4258 27.7853H102.442C102.93 27.7853 103.321 28.1798 103.321 28.6643C103.321 29.1488 102.93 29.5433 102.442 29.5433Z" fill="#E4D6FF"/>
</g>
<circle cx="30" cy="30" r="29.5" fill="#E4D6FF" stroke="#9764FF"/>
<path d="M26.6091 25.3042L21 30.6083H30.5358L31.5313 28.2979H26.6999L29.7218 25.3042L27.9668 22.3115H36.1641L28.5992 40H31.4406L40 20H23.4611L26.6091 25.3042Z" fill="#7633FF"/>
<circle cx="154" cy="30" r="29.5" stroke="#E4E4E5"/>
<path d="M60.5 30H80" stroke="#E4E4E5" stroke-dasharray="1 1"/>
<path d="M104 30H123.5" stroke="#E4E4E5" stroke-dasharray="1 1"/>
<path d="M154.008 27H159.288C159.53 27 159.768 27.0232 159.997 27.0682V25.128C159.997 24.093 160.836 23.253 161.87 23.253H162.735C162.882 23.253 163.002 23.133 163.002 22.986V22.1137C163.002 21.9127 163.165 21.75 163.365 21.75C163.992 21.75 164.5 22.2585 164.5 22.8855V24.3772C164.5 25.4122 163.662 26.2522 162.627 26.2522H161.763C161.727 26.2522 161.693 26.2592 161.66 26.2726C161.628 26.286 161.598 26.3057 161.574 26.3304C161.549 26.3552 161.529 26.3847 161.516 26.4171C161.502 26.4495 161.496 26.4842 161.496 26.5192V27.735C161.955 28.0787 162.327 28.5247 162.584 29.0377C162.84 29.5507 162.974 30.1165 162.973 30.69V36.075C162.973 36.5122 162.824 36.9364 162.552 37.278L160.126 40.314C160.08 40.3721 160.021 40.4189 159.954 40.4511C159.887 40.4833 159.814 40.5 159.74 40.5H158.827C158.795 40.5 158.763 40.4911 158.735 40.4741C158.708 40.4571 158.686 40.4329 158.671 40.404C158.657 40.3751 158.651 40.3427 158.653 40.3106C158.656 40.2784 158.668 40.2476 158.688 40.2217L160.367 37.98C160.653 37.5981 160.776 37.118 160.709 36.6454C160.641 36.1728 160.389 35.7464 160.007 35.46L158.123 34.0447C157.868 33.8533 157.558 33.7499 157.239 33.75H151.236C150.729 33.7506 150.228 33.6469 149.763 33.4455C149.727 33.4301 149.687 33.4259 149.648 33.4334C149.61 33.4409 149.575 33.4597 149.547 33.4875L148.887 34.1475C148.84 34.1946 148.803 34.2507 148.778 34.3125C148.753 34.3742 148.741 34.4404 148.742 34.507C148.743 34.5737 148.757 34.6394 148.784 34.7003C148.812 34.7612 148.851 34.816 148.899 34.8615L149.846 35.817C149.963 35.9342 150.122 36 150.288 36H150.631C150.829 36 150.99 36.1612 150.99 36.3592V37.1415C150.99 37.1886 150.98 37.2353 150.962 37.2789C150.944 37.3224 150.918 37.362 150.884 37.3953C150.851 37.4286 150.811 37.455 150.768 37.4729C150.724 37.4909 150.677 37.5001 150.63 37.5H150.288C150.009 37.5008 149.733 37.4462 149.475 37.3393C149.217 37.2325 148.983 37.0755 148.787 36.8775L147.853 35.9355C147.469 35.5568 147.251 35.042 147.245 34.503C147.244 34.24 147.295 33.9795 147.395 33.7364C147.495 33.4933 147.643 33.2726 147.829 33.087L148.31 32.6047C148.344 32.5706 148.364 32.5251 148.367 32.477C148.369 32.4288 148.354 32.3814 148.324 32.3437C147.908 31.821 147.641 31.1959 147.55 30.534L146.718 24.5002C146.713 24.4667 146.701 24.4347 146.682 24.4066C146.663 24.3784 146.638 24.355 146.609 24.338C146.579 24.321 146.547 24.3109 146.513 24.3085C146.479 24.3061 146.445 24.3114 146.414 24.324L145.343 24.756L144.388 23.0385L145.572 21.756H144.966C144.94 21.7559 144.914 21.75 144.89 21.7389C144.866 21.7277 144.844 21.7115 144.827 21.6914C144.81 21.6713 144.797 21.6477 144.79 21.6222C144.782 21.5967 144.781 21.5699 144.785 21.5437C144.836 21.185 145.014 20.8566 145.288 20.6189C145.561 20.3812 145.911 20.2502 146.274 20.25H146.814V19.7025C146.814 19.6663 146.823 19.6307 146.842 19.5996C146.86 19.5684 146.887 19.5428 146.919 19.5254C146.951 19.508 146.986 19.4995 147.023 19.5007C147.059 19.5019 147.094 19.5128 147.125 19.5322L148.08 20.2477H152.001C152.177 20.2477 152.32 20.391 152.32 20.568C152.32 21.0652 152.061 21.501 151.671 21.7492H153.672C153.852 21.7492 153.999 21.8962 153.999 22.0762C153.999 22.4572 153.905 22.8324 153.725 23.1682C153.545 23.5039 153.284 23.7897 152.967 24H154.903C155.074 24 155.212 24.1387 155.212 24.3097C155.213 24.8566 155.064 25.3932 154.782 25.8619C154.501 26.3306 154.097 26.7137 153.614 26.97C153.743 26.9895 153.875 27 154.008 27H154.008ZM146.875 22.9147C146.974 22.9147 147.07 22.8752 147.14 22.8049C147.21 22.7346 147.25 22.6392 147.25 22.5397V22.125C147.252 22.0744 147.244 22.0238 147.226 21.9764C147.209 21.929 147.181 21.8857 147.146 21.8491C147.111 21.8124 147.069 21.7833 147.023 21.7634C146.976 21.7435 146.926 21.7332 146.875 21.7332C146.825 21.7332 146.775 21.7435 146.728 21.7634C146.681 21.7833 146.639 21.8124 146.604 21.8491C146.569 21.8857 146.542 21.929 146.524 21.9764C146.506 22.0238 146.498 22.0744 146.501 22.125V22.5405C146.501 22.64 146.54 22.7353 146.611 22.8057C146.681 22.876 146.776 22.9155 146.876 22.9155L146.875 22.9147Z" fill="#141414"/>
<path d="M144.12 23.328L143.713 23.7705C143.627 23.8639 143.564 23.9764 143.529 24.0988C143.495 24.2213 143.49 24.3501 143.516 24.4747C143.621 24.99 144.131 25.2457 144.618 25.0485L144.993 24.8977L144.12 23.328ZM146.719 29.9992H146.239C145.977 29.9993 145.717 30.0511 145.475 30.1515C145.233 30.2519 145.013 30.399 144.828 30.5844C144.643 30.7698 144.496 30.9898 144.396 31.232C144.296 31.4742 144.245 31.7337 144.245 31.9957V33.7657C144.245 34.3335 144.466 34.8675 144.867 35.2687L145.161 35.5627C145.188 35.5893 145.219 35.6103 145.254 35.6247C145.288 35.639 145.326 35.6464 145.363 35.6464C145.4 35.6464 145.438 35.639 145.472 35.6247C145.507 35.6103 145.538 35.5893 145.565 35.5627L146.22 34.9057C146.273 34.8522 146.303 34.7796 146.303 34.704C146.303 34.6284 146.273 34.5558 146.22 34.5022L145.926 34.2082C145.809 34.0907 145.743 33.9316 145.743 33.7657V31.9957C145.743 31.7212 145.965 31.4992 146.239 31.4992H147.015C146.917 31.2191 146.847 30.9299 146.807 30.636L146.719 29.9992ZM156.232 34.5V35.3812C156.232 35.4755 156.213 35.5687 156.177 35.6557C156.141 35.7427 156.088 35.8217 156.021 35.8882L155.36 36.5467C155.161 36.7452 155.003 36.9811 154.896 37.2409C154.788 37.5007 154.733 37.7792 154.734 38.0602V38.763C154.734 38.8935 154.839 39 154.971 39H155.996C156.058 38.9998 156.119 38.9747 156.163 38.9303C156.207 38.8859 156.232 38.8257 156.232 38.763V38.0595C156.232 37.89 156.3 37.7272 156.42 37.6072L158.647 35.3767L157.672 34.6447C157.547 34.5508 157.395 34.5 157.239 34.5H156.232Z" fill="#141414"/>
<path d="M154.008 27H159.288C159.53 27 159.768 27.0232 159.997 27.0682V25.128C159.997 24.093 160.836 23.253 161.87 23.253H162.735C162.882 23.253 163.002 23.133 163.002 22.986V22.1137C163.002 21.9127 163.165 21.75 163.365 21.75C163.992 21.75 164.5 22.2585 164.5 22.8855V24.3772C164.5 25.4122 163.662 26.2522 162.627 26.2522H161.763C161.727 26.2522 161.693 26.2592 161.66 26.2726C161.628 26.286 161.598 26.3057 161.574 26.3304C161.549 26.3552 161.529 26.3847 161.516 26.4171C161.502 26.4495 161.496 26.4842 161.496 26.5192V27.735C161.955 28.0787 162.327 28.5247 162.584 29.0377C162.84 29.5507 162.974 30.1165 162.973 30.69V36.075C162.973 36.5122 162.824 36.9364 162.552 37.278L160.126 40.314C160.08 40.3721 160.021 40.4189 159.954 40.4511C159.887 40.4833 159.814 40.5 159.74 40.5H158.827C158.795 40.5 158.763 40.4911 158.735 40.4741C158.708 40.4571 158.686 40.4329 158.671 40.404C158.657 40.3751 158.651 40.3427 158.653 40.3106C158.656 40.2784 158.668 40.2476 158.688 40.2217L160.367 37.98C160.653 37.5981 160.776 37.118 160.709 36.6454C160.641 36.1728 160.389 35.7464 160.007 35.46L158.123 34.0447C157.868 33.8533 157.558 33.7499 157.239 33.75H151.236C150.729 33.7506 150.228 33.6469 149.763 33.4455C149.727 33.4301 149.687 33.4259 149.648 33.4334C149.61 33.4409 149.575 33.4597 149.547 33.4875L148.887 34.1475C148.84 34.1946 148.803 34.2507 148.778 34.3125C148.753 34.3742 148.741 34.4404 148.742 34.507C148.743 34.5737 148.757 34.6394 148.784 34.7003C148.812 34.7612 148.851 34.816 148.899 34.8615L149.846 35.817C149.963 35.9342 150.122 36 150.288 36H150.631C150.829 36 150.99 36.1612 150.99 36.3592V37.1415C150.99 37.1886 150.98 37.2353 150.962 37.2789C150.944 37.3224 150.918 37.362 150.884 37.3953C150.851 37.4286 150.811 37.455 150.768 37.4729C150.724 37.4909 150.677 37.5001 150.63 37.5H150.288C150.009 37.5008 149.733 37.4462 149.475 37.3393C149.217 37.2325 148.983 37.0755 148.787 36.8775L147.853 35.9355C147.469 35.5568 147.251 35.042 147.245 34.503C147.244 34.24 147.295 33.9795 147.395 33.7364C147.495 33.4933 147.643 33.2726 147.829 33.087L148.31 32.6047C148.344 32.5706 148.364 32.5251 148.367 32.477C148.369 32.4288 148.354 32.3814 148.324 32.3437C147.908 31.821 147.641 31.1959 147.55 30.534L146.718 24.5002C146.713 24.4667 146.701 24.4347 146.682 24.4066C146.663 24.3784 146.638 24.355 146.609 24.338C146.579 24.321 146.547 24.3109 146.513 24.3085C146.479 24.3061 146.445 24.3114 146.414 24.324L145.343 24.756L144.388 23.0385L145.572 21.756H144.966C144.94 21.7559 144.914 21.75 144.89 21.7389C144.866 21.7277 144.844 21.7115 144.827 21.6914C144.81 21.6713 144.797 21.6477 144.79 21.6222C144.782 21.5967 144.781 21.5699 144.785 21.5437C144.836 21.185 145.014 20.8566 145.288 20.6189C145.561 20.3812 145.911 20.2502 146.274 20.25H146.814V19.7025C146.814 19.6663 146.823 19.6307 146.842 19.5996C146.86 19.5684 146.887 19.5428 146.919 19.5254C146.951 19.508 146.986 19.4995 147.023 19.5007C147.059 19.5019 147.094 19.5128 147.125 19.5322L148.08 20.2477H152.001C152.177 20.2477 152.32 20.391 152.32 20.568C152.32 21.0652 152.061 21.501 151.671 21.7492H153.672C153.852 21.7492 153.999 21.8962 153.999 22.0762C153.999 22.4572 153.905 22.8324 153.725 23.1682C153.545 23.5039 153.284 23.7897 152.967 24H154.903C155.074 24 155.212 24.1387 155.212 24.3097C155.213 24.8566 155.064 25.3932 154.782 25.8619C154.501 26.3306 154.097 26.7137 153.614 26.97C153.743 26.9895 153.875 27 154.008 27H154.008ZM146.875 22.9147C146.974 22.9147 147.07 22.8752 147.14 22.8049C147.21 22.7346 147.25 22.6392 147.25 22.5397V22.125C147.252 22.0744 147.244 22.0238 147.226 21.9764C147.209 21.929 147.181 21.8857 147.146 21.8491C147.111 21.8124 147.069 21.7833 147.023 21.7634C146.976 21.7435 146.926 21.7332 146.875 21.7332C146.825 21.7332 146.775 21.7435 146.728 21.7634C146.681 21.7833 146.639 21.8124 146.604 21.8491C146.569 21.8857 146.542 21.929 146.524 21.9764C146.506 22.0238 146.498 22.0744 146.501 22.125V22.5405C146.501 22.64 146.54 22.7353 146.611 22.8057C146.681 22.876 146.776 22.9155 146.876 22.9155L146.875 22.9147Z" fill="#141414"/>
<path d="M144.12 23.328L143.713 23.7705C143.627 23.8639 143.564 23.9764 143.529 24.0988C143.495 24.2213 143.49 24.3501 143.516 24.4747C143.621 24.99 144.131 25.2457 144.618 25.0485L144.993 24.8977L144.12 23.328ZM146.719 29.9992H146.239C145.977 29.9993 145.717 30.0511 145.475 30.1515C145.233 30.2519 145.013 30.399 144.828 30.5844C144.643 30.7698 144.496 30.9898 144.396 31.232C144.296 31.4742 144.245 31.7337 144.245 31.9957V33.7657C144.245 34.3335 144.466 34.8675 144.867 35.2687L145.161 35.5627C145.188 35.5893 145.219 35.6103 145.254 35.6247C145.288 35.639 145.326 35.6464 145.363 35.6464C145.4 35.6464 145.438 35.639 145.472 35.6247C145.507 35.6103 145.538 35.5893 145.565 35.5627L146.22 34.9057C146.273 34.8522 146.303 34.7796 146.303 34.704C146.303 34.6284 146.273 34.5558 146.22 34.5022L145.926 34.2082C145.809 34.0907 145.743 33.9316 145.743 33.7657V31.9957C145.743 31.7212 145.965 31.4992 146.239 31.4992H147.015C146.917 31.2191 146.847 30.9299 146.807 30.636L146.719 29.9992ZM156.232 34.5V35.3812C156.232 35.4755 156.213 35.5687 156.177 35.6557C156.141 35.7427 156.088 35.8217 156.021 35.8882L155.36 36.5467C155.161 36.7452 155.003 36.9811 154.896 37.2409C154.788 37.5007 154.733 37.7792 154.734 38.0602V38.763C154.734 38.8935 154.839 39 154.971 39H155.996C156.058 38.9998 156.119 38.9747 156.163 38.9303C156.207 38.8859 156.232 38.8257 156.232 38.763V38.0595C156.232 37.89 156.3 37.7272 156.42 37.6072L158.647 35.3767L157.672 34.6447C157.547 34.5508 157.395 34.5 157.239 34.5H156.232Z" fill="#141414"/>
<defs>
<clipPath id="clip0_297_12429">
<rect width="24" height="24" fill="white" transform="translate(80 18)"/>
</clipPath>
</defs>
</svg>
