<svg width="175" height="126" viewBox="0 0 175 126" fill="none" xmlns="http://www.w3.org/2000/svg">
<g clip-path="url(#clip0_297_12396)">
<path d="M13.66 17.4254C17.7168 17.4254 21.0054 14.1074 21.0054 10.0144C21.0054 5.92145 17.7168 2.60345 13.66 2.60345C9.60332 2.60345 6.3147 5.92145 6.3147 10.0144C6.3147 14.1074 9.60332 17.4254 13.66 17.4254Z" fill="#FF6584"/>
<path d="M59.0734 120.965C64.9165 123.408 71.1203 124.856 77.4327 125.252C80.3902 125.438 83.4035 125.447 86.3456 125.053C88.9237 124.708 91.5423 123.999 93.6913 122.465C95.8392 120.906 97.3514 118.611 97.9454 116.009C98.6026 113.267 98.326 110.394 97.3874 107.753C96.4187 105.018 94.8872 102.522 92.8937 100.427C91.1066 98.5818 88.6033 96.9031 85.9265 97.2191C83.3535 97.5228 81.4823 99.6214 80.797 102.049C79.9754 104.96 80.9207 108.039 82.2025 110.66C84.3769 115.105 87.8665 118.837 91.9992 121.49C96.1567 124.175 100.936 125.72 105.866 125.973C110.806 126.197 116.119 125.042 120.011 121.821C122.061 120.141 123.525 117.843 124.189 115.263C124.88 112.541 124.699 109.666 124.101 106.945C122.803 101.037 119.373 95.9587 117.387 90.3038C116.895 88.9239 116.516 87.5056 116.254 86.063C116.189 85.693 115.63 85.8498 115.695 86.2186C116.722 92.0359 119.972 97.0446 122.105 102.462C124.048 107.397 125.205 113.455 122.326 118.273C119.737 122.608 114.594 124.72 109.798 125.26C105.108 125.787 100.307 124.939 96.0074 123.001C91.6801 121.05 87.8022 118.011 84.9888 114.149C83.4596 112.05 82.1423 109.673 81.4669 107.148C80.7755 104.563 80.9377 101.634 82.7665 99.5463C83.5738 98.596 84.6977 97.9764 85.9265 97.8042C87.2031 97.643 88.4816 98.0038 89.6036 98.6055C92.0127 99.8973 93.8053 102.143 95.1886 104.465C96.6176 106.864 97.6245 109.583 97.7244 112.402C97.8173 115.022 97.1358 117.709 95.5743 119.831C92.3504 124.211 86.2914 124.742 81.3189 124.776C75.2241 124.814 69.1632 123.86 63.3697 121.951C61.9694 121.489 60.5887 120.973 59.2276 120.401C58.8833 120.257 58.7331 120.823 59.0734 120.965Z" fill="#E6E6E6"/>
<path d="M43.9991 101.984L42.4419 99.5717C42.2604 99.2899 42.1971 98.9469 42.2659 98.6181C42.3347 98.2892 42.5299 98.0013 42.8088 97.8176L52.2945 90.3783C52.5738 90.1952 52.9138 90.1313 53.2397 90.2007C53.5656 90.2701 53.851 90.4671 54.0331 90.7485L55.5904 93.1604C55.7719 93.4422 55.8352 93.7852 55.7664 94.114C55.6976 94.4429 55.5023 94.7307 55.2234 94.9145L45.7377 102.354C45.4584 102.537 45.1185 102.601 44.7925 102.531C44.4666 102.462 44.1813 102.265 43.9991 101.984Z" fill="#2F2E41"/>
<path d="M42.819 97.8285L45.3209 96.4449C45.6131 96.2837 45.9569 96.2461 46.2767 96.3402C46.5964 96.4344 46.8661 96.6527 47.0266 96.9473L53.6692 109.023C53.829 109.318 53.8663 109.664 53.773 109.987C53.6797 110.31 53.4633 110.582 53.1714 110.744L50.6695 112.127C50.3773 112.288 50.0335 112.326 49.7137 112.232C49.394 112.138 49.1243 111.919 48.9638 111.625L42.3212 99.5494C42.1614 99.2545 42.1241 98.9077 42.2174 98.5851C42.3107 98.2625 42.5271 97.9904 42.819 97.8285Z" fill="#2F2E41"/>
<path d="M25.4295 75.6071C25.1108 75.6066 24.8042 75.484 24.5718 75.264C24.3394 75.044 24.1985 74.7432 24.1776 74.4223L23.9912 71.55C23.9694 71.2145 24.0806 70.884 24.3003 70.6312C24.5201 70.3785 24.8303 70.2241 25.1628 70.2021L47.467 68.7284C47.8186 68.7052 48.1713 68.752 48.5049 68.8663C48.8385 68.9806 49.1466 69.1601 49.4115 69.3945C49.6764 69.6289 49.8929 69.9136 50.0487 70.2325C50.2045 70.5513 50.2966 70.898 50.3196 71.2527C50.3426 71.6074 50.2962 71.9632 50.1829 72.2998C50.0696 72.6364 49.8917 72.9473 49.6594 73.2145C49.4271 73.4818 49.1449 73.7002 48.8289 73.8574C48.5129 74.0146 48.1692 74.1075 47.8177 74.1307L25.5135 75.6044C25.4854 75.6062 25.4574 75.6071 25.4295 75.6071Z" fill="#6C63FF"/>
<path d="M29.8276 75.9774C29.5027 75.9769 29.1906 75.8496 28.9566 75.6221C28.7227 75.3946 28.585 75.0846 28.5725 74.757L28.4136 70.4669C28.4074 70.3005 28.4338 70.1345 28.4912 69.9785C28.5486 69.8224 28.6359 69.6793 28.7482 69.5573C28.8604 69.4352 28.9954 69.3367 29.1454 69.2673C29.2953 69.1979 29.4574 69.159 29.6223 69.1528L47.9636 68.4612C48.2966 68.4486 48.6209 68.5701 48.8652 68.7988C49.1095 69.0275 49.2537 69.3447 49.2661 69.6807L49.4251 73.9708C49.4312 74.1372 49.4049 74.3031 49.3475 74.4592C49.29 74.6153 49.2027 74.7584 49.0905 74.8804C48.9782 75.0024 48.8433 75.101 48.6933 75.1704C48.5433 75.2398 48.3813 75.2787 48.2164 75.2849L29.875 75.9765C29.8592 75.9772 29.8433 75.9774 29.8276 75.9774Z" fill="#CCCCCC"/>
<path d="M59.2784 121.336V112.026C59.2784 103.898 55.764 96.1042 49.4932 91.0028C44.8062 87.1898 38.0173 84.3385 28.292 84.9756L31.9969 70.0236L0 92.1118L31.3233 114.2L28.1236 100.098C28.1236 100.098 47.6585 96.3595 59.2784 121.336Z" fill="#3F3D56"/>
<path d="M36.9013 106.619L34.5937 104.927C34.3245 104.729 34.1442 104.431 34.0922 104.099C34.0402 103.767 34.1208 103.428 34.3164 103.156L48.2999 83.7519C48.4961 83.4803 48.7911 83.2983 49.1201 83.2459C49.4492 83.1934 49.7854 83.2748 50.055 83.4721L52.3626 85.1649C52.6318 85.3628 52.8121 85.6604 52.8641 85.9924C52.9161 86.3244 52.8355 86.6636 52.6399 86.9357L38.6564 106.34C38.4602 106.611 38.1652 106.793 37.8362 106.846C37.5071 106.898 37.1709 106.817 36.9013 106.619Z" fill="#2F2E41"/>
<path d="M34.3298 103.162L36.1779 100.969C36.394 100.714 36.7018 100.555 37.0338 100.528C37.3659 100.501 37.695 100.607 37.949 100.825L48.4239 109.715C48.6775 109.933 48.8349 110.244 48.8618 110.579C48.8887 110.914 48.7827 111.246 48.5672 111.502L46.7191 113.695C46.5031 113.951 46.1953 114.11 45.8632 114.137C45.5312 114.164 45.2021 114.057 44.9481 113.84L34.4731 104.949C34.2196 104.731 34.0621 104.421 34.0353 104.086C34.0084 103.751 34.1143 103.419 34.3298 103.162Z" fill="#2F2E41"/>
<path d="M46.9875 63.9616C52.4321 63.9616 56.8457 59.5085 56.8457 54.0153C56.8457 48.5221 52.4321 44.069 46.9875 44.069C41.543 44.069 37.1293 48.5221 37.1293 54.0153C37.1293 59.5085 41.543 63.9616 46.9875 63.9616Z" fill="#6C63FF"/>
<path d="M42.6509 58.3962C42.3172 58.4032 41.9859 58.3381 41.6792 58.2051C41.4721 58.106 41.2891 57.9624 41.1428 57.7843C40.9966 57.6063 40.8907 57.3982 40.8325 57.1745C40.7882 57.0161 40.7808 56.8496 40.8109 56.6879C40.841 56.5262 40.9077 56.3737 41.0058 56.2423C41.2633 55.909 41.7079 55.7505 42.2309 55.791L40.9363 52.1344L41.3003 52.0032L42.8224 56.3019L42.4792 56.2234C42.0813 56.1326 41.5653 56.1525 41.3108 56.4821C41.2492 56.5672 41.2078 56.6654 41.1899 56.7693C41.1721 56.8731 41.1782 56.9797 41.2078 57.0808C41.252 57.2471 41.3312 57.4018 41.44 57.5345C41.5488 57.6671 41.6846 57.7746 41.8382 57.8495C42.3763 58.0947 43.0061 58.0074 43.7139 57.878L43.7828 58.2618C43.4102 58.3406 43.0314 58.3856 42.6509 58.3962Z" fill="#2F2E41"/>
<path d="M39.1502 52.8522L37.1125 53.2841L37.192 53.6657L39.2297 53.2338L39.1502 52.8522Z" fill="#2F2E41"/>
<path d="M45.5819 51.4887L43.5443 51.9206L43.6237 52.3023L45.6614 51.8704L45.5819 51.4887Z" fill="#2F2E41"/>
<path d="M55.2192 96.7031H38.5955C38.1599 96.7026 37.7423 96.5278 37.4343 96.217C37.1262 95.9062 36.953 95.4849 36.9525 95.0454L40.4327 68.1193C40.4354 67.6818 40.6097 67.2632 40.9174 66.955C41.2251 66.6467 41.6413 66.4739 42.0749 66.4742H47.9744C50.3307 66.4769 52.5899 67.4225 54.2561 69.1036C55.9223 70.7847 56.8596 73.064 56.8622 75.4414V95.0454C56.8617 95.4849 56.6885 95.9062 56.3804 96.217C56.0724 96.5278 55.6548 96.7026 55.2192 96.7031Z" fill="#CCCCCC"/>
<path d="M29.2597 85.4607C29.0171 85.4609 28.7797 85.3903 28.5759 85.2574C28.3722 85.1246 28.2109 84.9352 28.1113 84.712L26.9436 82.0856C26.8761 81.9337 26.8389 81.7699 26.8341 81.6035C26.8293 81.4371 26.8571 81.2714 26.9158 81.1158C26.9745 80.9602 27.063 80.8178 27.1762 80.6967C27.2894 80.5757 27.4252 80.4783 27.5758 80.4102L47.9696 71.1797C48.2911 71.0342 48.6378 70.954 48.99 70.9437C49.3422 70.9334 49.6929 70.9932 50.0222 71.1197C50.3514 71.2461 50.6528 71.4368 50.909 71.6807C51.1653 71.9247 51.3714 72.2172 51.5156 72.5415C51.6598 72.8658 51.7393 73.2157 51.7495 73.571C51.7597 73.9263 51.7005 74.2802 51.5751 74.6124C51.4498 74.9446 51.2608 75.2486 51.019 75.5072C50.7772 75.7657 50.4873 75.9737 50.1659 76.1191L29.772 85.3497C29.6109 85.4228 29.4363 85.4607 29.2597 85.4607Z" fill="#6C63FF"/>
<path d="M35.2082 84.1048C34.9656 84.1049 34.7282 84.0343 34.5245 83.9015C34.3207 83.7686 34.1594 83.5792 34.0599 83.356L32.0653 78.8701C31.9294 78.5633 31.9195 78.2146 32.038 77.9005C32.1566 77.5864 32.3937 77.3325 32.6975 77.1946L49.4438 69.6151C49.5943 69.547 49.7567 69.5094 49.9216 69.5046C50.0866 69.4998 50.2508 69.5277 50.405 69.587C50.5592 69.6462 50.7004 69.7355 50.8204 69.8497C50.9404 69.964 51.0369 70.101 51.1044 70.2529L53.099 74.7387C53.1665 74.8906 53.2038 75.0544 53.2085 75.2208C53.2133 75.3872 53.1856 75.553 53.1269 75.7086C53.0682 75.8641 52.9797 76.0065 52.8664 76.1276C52.7532 76.2487 52.6174 76.346 52.4669 76.4142L35.7205 83.9938C35.5594 84.0669 35.3848 84.1047 35.2082 84.1048Z" fill="#CCCCCC"/>
<path d="M44.8002 47.7792C43.1951 47.1826 41.8757 48.7543 40.4213 49.1141C39.0298 49.4583 37.5308 48.6485 36.7876 47.4681C35.9205 46.0911 36.1353 44.3033 36.9241 42.9439C37.788 41.455 39.3264 40.5414 40.957 40.1423C42.8258 39.685 44.773 39.9099 46.6174 40.3744C48.3865 40.7924 50.1016 41.4154 51.7287 42.2312C53.1997 42.9993 54.594 44.0501 55.4537 45.5056C56.235 46.8283 56.6215 48.4745 56.2349 49.99C56.022 50.7723 55.6129 51.4861 55.047 52.0624C54.4647 52.6843 53.7976 53.2234 53.2547 53.883C52.4337 54.8804 51.882 56.515 52.6914 57.6948C52.8669 57.953 53.1026 58.1637 53.3778 58.3084C53.7084 58.4822 54.002 57.9774 53.6705 57.8032C53.0884 57.4973 52.877 56.8765 52.8927 56.2435C52.924 55.525 53.1962 54.8386 53.6647 54.2967C54.2334 53.6072 54.9365 53.049 55.5369 52.3899C56.1178 51.7756 56.5431 51.0288 56.7764 50.213C57.2031 48.6352 56.8694 46.9167 56.1141 45.4952C55.2967 43.9569 53.9267 42.7954 52.4357 41.9512C50.8131 41.0325 49.0097 40.4168 47.2192 39.9279C45.298 39.4033 43.2807 39.1079 41.3037 39.4709C39.5899 39.7857 37.915 40.6204 36.8373 42.0327C35.8313 43.351 35.3507 45.1479 35.8371 46.7701C36.0681 47.5046 36.4888 48.1638 37.0561 48.6797C37.6233 49.1957 38.3166 49.5498 39.0646 49.7057C39.8251 49.8468 40.6103 49.7435 41.3095 49.4103C42.0628 49.0697 42.747 48.5402 43.5481 48.3138C43.9075 48.203 44.293 48.2133 44.646 48.3433C44.9967 48.4737 45.148 47.9084 44.8002 47.7792Z" fill="#2F2E41"/>
<path d="M115.722 87.4081V78.0976C115.722 69.9703 119.236 62.1761 125.507 57.0747C130.194 53.2617 136.983 50.4104 146.708 51.0476L143.003 36.0956L175 58.1838L143.677 80.2719L146.876 66.1695C146.876 66.1695 127.341 62.4315 115.722 87.4081Z" fill="#3F3D56"/>
<path d="M133.114 40.8258C132.701 40.4896 132.396 40.0374 132.238 39.5263C132.08 39.0153 132.075 38.4684 132.225 37.9548C132.375 37.4412 132.673 36.984 133.08 36.641C133.487 36.298 133.986 36.0845 134.514 36.0277L156.74 33.6333C157.071 33.598 157.403 33.6968 157.662 33.9078C157.921 34.1189 158.087 34.4251 158.122 34.7592L158.425 37.6214C158.443 37.787 158.428 37.9544 158.381 38.1141C158.335 38.2738 158.257 38.4226 158.154 38.5522C158.05 38.6817 157.922 38.7894 157.777 38.8691C157.632 38.9488 157.473 38.9988 157.309 39.0165L135.084 41.4109C134.987 41.4213 134.891 41.4265 134.794 41.4265C134.182 41.4269 133.589 41.2148 133.114 40.8258Z" fill="#6C63FF"/>
<path d="M139.661 60.599V57.7205C139.661 57.3844 139.794 57.0622 140.029 56.8246C140.265 56.5869 140.584 56.4532 140.917 56.4529H164.696C165.029 56.4532 165.348 56.5869 165.584 56.8246C165.819 57.0622 165.952 57.3844 165.952 57.7205V60.599C165.952 60.935 165.819 61.2573 165.584 61.4949C165.348 61.7326 165.029 61.8662 164.696 61.8666H140.917C140.584 61.8662 140.265 61.7326 140.029 61.4949C139.794 61.2573 139.661 60.935 139.661 60.599Z" fill="#6C63FF"/>
<path d="M128.292 60.739C128.144 60.6645 128.013 60.5612 127.905 60.4351C127.797 60.309 127.715 60.1625 127.664 60.0043L126.769 57.2709C126.665 56.9516 126.691 56.6037 126.841 56.3036C126.991 56.0034 127.252 55.7754 127.569 55.6697L150.148 48.1478C150.465 48.0424 150.81 48.0681 151.107 48.2194C151.405 48.3706 151.631 48.6349 151.735 48.9541L152.63 51.6874C152.734 52.0067 152.708 52.3546 152.558 52.6547C152.408 52.9549 152.147 53.1828 151.83 53.2886L129.251 60.8105C129.094 60.8631 128.929 60.8839 128.764 60.8716C128.6 60.8593 128.439 60.8143 128.292 60.739Z" fill="#6C63FF"/>
<path d="M157.894 61.5836L147.76 52.365C147.513 52.1396 147.365 51.8246 147.348 51.4889C147.33 51.1533 147.446 50.8245 147.669 50.5746L149.579 48.4368C149.802 48.1871 150.115 48.0371 150.447 48.0198C150.78 48.0024 151.106 48.1191 151.354 48.3442L161.487 57.5628C161.734 57.7882 161.883 58.1032 161.9 58.4389C161.917 58.7745 161.802 59.1033 161.579 59.3532L159.669 61.491C159.558 61.615 159.425 61.7157 159.276 61.7873C159.127 61.8589 158.965 61.8999 158.8 61.9081C158.778 61.9093 158.756 61.9099 158.734 61.9099C158.423 61.9103 158.124 61.794 157.894 61.5836Z" fill="#6C63FF"/>
<path d="M132.131 28.4656C137.575 28.4656 141.989 24.0125 141.989 18.5193C141.989 13.0261 137.575 8.57303 132.131 8.57303C126.686 8.57303 122.273 13.0261 122.273 18.5193C122.273 24.0125 126.686 28.4656 132.131 28.4656Z" fill="#6C63FF"/>
<path d="M120.593 57.9929C119.903 56.8039 119.54 55.4511 119.54 54.0735C119.54 52.6958 119.903 51.343 120.593 50.1541L131.043 31.8928C131.153 31.7 131.312 31.54 131.503 31.4288C131.694 31.3175 131.91 31.2589 132.131 31.2589C132.351 31.2589 132.568 31.3175 132.759 31.4288C132.95 31.54 133.109 31.7 133.219 31.8928L149.309 60.0108C149.42 60.2036 149.478 60.4222 149.478 60.6447C149.478 60.8672 149.42 61.0858 149.309 61.2785C149.199 61.4712 149.04 61.6312 148.849 61.7425C148.658 61.8538 148.442 61.9123 148.221 61.9123H127.321C125.956 61.9205 124.613 61.5618 123.431 60.873C122.248 60.1841 121.269 59.1901 120.593 57.9929Z" fill="#CCCCCC"/>
<path d="M140.257 22.3045C140.896 22.2866 141.691 22.2642 142.304 21.8127C142.486 21.6727 142.636 21.4942 142.743 21.2896C142.85 21.0851 142.911 20.8594 142.922 20.6284C142.933 20.4643 142.907 20.2997 142.844 20.1477C142.782 19.9957 142.686 19.8603 142.563 19.7521C142.243 19.4791 141.776 19.4152 141.272 19.5646L141.794 15.7176L141.411 15.6646L140.797 20.1873L141.117 20.0392C141.488 19.8676 141.997 19.7803 142.313 20.0499C142.391 20.1204 142.451 20.2081 142.49 20.306C142.529 20.404 142.544 20.5096 142.536 20.6146C142.527 20.7865 142.481 20.9544 142.401 21.1068C142.322 21.2591 142.211 21.3925 142.076 21.4977C141.599 21.8491 140.965 21.8944 140.246 21.9147L140.257 22.3045Z" fill="#2F2E41"/>
<path d="M139.198 16.0493H137.116V16.4394H139.198V16.0493Z" fill="#2F2E41"/>
<path d="M126.286 6.78898C126.012 5.66011 125.505 4.60247 124.797 3.68559C124.089 2.7687 123.197 2.01333 122.179 1.4691C121.135 0.927872 119.985 0.628005 118.812 0.591284C117.639 0.554562 116.473 0.781906 115.398 1.2568C114.297 1.73263 113.319 2.4575 112.54 3.37538C111.761 4.29327 111.201 5.37959 110.905 6.55039C110.599 7.72823 110.557 8.9598 110.781 10.1561C111.056 11.4232 111.589 12.6188 112.346 13.6669C113.11 14.7826 114.008 15.7952 114.832 16.8642C115.659 17.9354 116.413 19.0627 117.087 20.2381C119.118 23.7796 120.406 27.7046 120.871 31.7693C121.028 32.997 121.058 34.2379 120.959 35.4718C120.737 37.8679 119.817 40.2148 117.706 41.5186C116.583 42.2118 115.287 42.5697 114.005 42.8201C112.567 43.1277 111.094 43.2437 109.626 43.1654C107.143 42.9874 104.659 41.9422 103.217 39.8135C102.898 39.3395 102.648 38.8216 102.475 38.2758C102.361 37.9166 102.92 37.7628 103.035 38.1202C103.798 40.5088 106.116 41.9812 108.461 42.4301C109.922 42.677 111.413 42.6755 112.873 42.4258C114.2 42.226 115.567 41.9493 116.783 41.3588C117.887 40.839 118.803 39.9843 119.404 38.914C119.946 37.8807 120.275 36.7468 120.369 35.5814C120.627 33.0297 120.207 30.388 119.576 27.9199C118.902 25.2784 117.868 22.7441 116.503 20.3894C115.822 19.2128 115.058 18.0863 114.22 17.0182C113.389 15.9616 112.503 14.9457 111.754 13.8264C111.014 12.7707 110.493 11.5752 110.222 10.3116C109.991 9.09926 110.012 7.85169 110.285 6.6481C110.547 5.46026 111.061 4.34377 111.792 3.37516C112.522 2.40655 113.452 1.60871 114.516 1.03633C116.605 -0.0755496 119.151 -0.341767 121.385 0.477538C123.554 1.28491 125.319 2.92314 126.297 5.0362C126.532 5.54877 126.716 6.08387 126.845 6.63345C126.93 6.99965 126.371 7.15593 126.286 6.78898Z" fill="#2F2E41"/>
<path d="M124.402 7.26461C124.038 6.21929 123.306 5.34579 122.344 4.81111C121.382 4.27642 120.259 4.11807 119.189 4.36631C118.826 4.45198 118.671 3.88799 119.035 3.80213C120.254 3.50045 121.541 3.67327 122.639 4.28616C123.737 4.89905 124.566 5.90699 124.961 7.10908C125.082 7.46589 124.523 7.61914 124.402 7.26461Z" fill="#2F2E41"/>
<path d="M124.313 9.37906C124.202 9.11767 124.199 8.82253 124.303 8.55839C124.407 8.29425 124.611 8.08268 124.87 7.97008L127.534 6.81488C127.793 6.70255 128.086 6.69865 128.348 6.80404C128.61 6.90942 128.819 7.11547 128.931 7.37684C129.042 7.63821 129.046 7.9335 128.941 8.19775C128.837 8.462 128.633 8.67356 128.374 8.78589L125.71 9.94109C125.451 10.0534 125.158 10.0573 124.896 9.95189C124.634 9.84649 124.425 9.64044 124.313 9.37906Z" fill="#2F2E41"/>
<path d="M130.87 64.1964L128.026 63.9634C127.694 63.9358 127.387 63.7765 127.171 63.5204C126.955 63.2643 126.849 62.9323 126.876 62.5973L128.684 40.1196C128.713 39.7652 128.81 39.4199 128.971 39.1034C129.131 38.7869 129.352 38.5055 129.621 38.2752C129.889 38.0449 130.2 37.8702 130.536 37.7611C130.871 37.652 131.224 37.6107 131.576 37.6395C131.927 37.6682 132.269 37.7666 132.583 37.9288C132.896 38.0911 133.175 38.3141 133.403 38.5851C133.632 38.8561 133.805 39.1698 133.913 39.5082C134.021 39.8467 134.061 40.2034 134.033 40.5578L132.224 63.0353C132.198 63.3524 132.056 63.6482 131.824 63.864C131.592 64.0799 131.289 64.2 130.974 64.2005C130.939 64.2006 130.905 64.1991 130.87 64.1964Z" fill="#6C63FF"/>
<path d="M2.50701 19.4411C1.49074 17.0441 2.8838 13.9168 5.33521 13.0921C7.78661 12.2674 10.7611 13.9255 11.374 16.4582C10.9777 15.4829 10.8111 14.4282 10.8873 13.3769C10.9634 12.3256 11.2802 11.3065 11.8128 10.3997C12.3454 9.49282 13.0793 8.72302 13.9566 8.15077C14.834 7.57852 15.831 7.21943 16.8692 7.10174C17.9074 6.98405 18.9586 7.11096 19.9399 7.4725C20.9213 7.83405 21.8062 8.42036 22.5249 9.18533C23.2437 9.9503 23.7768 10.8731 24.0823 11.8811C24.3877 12.8891 24.4572 13.9549 24.2854 14.9946C25.7631 12.7966 28.9338 11.9665 31.2843 13.1622C33.6348 14.3579 34.8587 17.4236 33.9859 19.9292L1.63229 19.8709" fill="#F2F2F2"/>
<path d="M68.0351 46.7446C67.0189 44.3476 68.4119 41.2203 70.8633 40.3956C73.3147 39.571 76.2892 41.229 76.9021 43.7617C76.5059 42.7864 76.3392 41.7317 76.4154 40.6804C76.4915 39.6291 76.8084 38.61 77.341 37.7032C77.8735 36.7963 78.6074 36.0265 79.4848 35.4543C80.3622 34.882 81.3592 34.5229 82.3974 34.4053C83.4356 34.2876 84.4867 34.4145 85.4681 34.776C86.4494 35.1376 87.3343 35.7239 88.0531 36.4888C88.7718 37.2538 89.3049 38.1766 89.6104 39.1846C89.9158 40.1926 89.9854 41.2584 89.8135 42.2981C91.2912 40.1002 94.4619 39.27 96.8124 40.4657C99.163 41.6615 100.387 44.7271 99.514 47.2327L67.1604 47.1744" fill="#F2F2F2"/>
</g>
<defs>
<clipPath id="clip0_297_12396">
<rect width="175" height="126" fill="white"/>
</clipPath>
</defs>
</svg>
