<svg width="28" height="28" viewBox="0 0 28 28" fill="none" xmlns="http://www.w3.org/2000/svg">
<g id="Bank/Lloyds bank">
<rect width="28" height="28" fill="white"/>
<g id="horse">
<path id="Vector" d="M14.0099 10.4993H20.1699C20.4534 10.4993 20.7299 10.5265 20.9976 10.579V8.31533C20.9976 7.10783 21.9759 6.12784 23.1825 6.12784H24.1922C24.3637 6.12784 24.5037 5.98783 24.5037 5.81633V4.79871C24.5037 4.56421 24.6936 4.37433 24.9272 4.37433C25.6587 4.37433 26.2511 4.96758 26.2511 5.69908V7.43946C26.2511 8.64696 25.2729 9.62696 24.0662 9.62696H23.0574C23.0165 9.62696 22.9759 9.63502 22.9382 9.65067C22.9004 9.66633 22.866 9.68927 22.8371 9.7182C22.8082 9.74712 22.7852 9.78146 22.7696 9.81925C22.7539 9.85705 22.7459 9.89755 22.7459 9.93846V11.3568C23.2816 11.7578 23.7163 12.2782 24.0156 12.8767C24.3148 13.4751 24.4703 14.1352 24.4696 14.8043V21.0868C24.4696 21.5969 24.2962 22.0918 23.9779 22.4903L21.1481 26.0323C21.0942 26.1001 21.0256 26.1548 20.9476 26.1923C20.8696 26.2299 20.7841 26.2494 20.6975 26.2493H19.6326C19.5949 26.2494 19.5579 26.2389 19.5259 26.2191C19.4938 26.1993 19.4678 26.171 19.4509 26.1373C19.434 26.1036 19.4268 26.0659 19.4302 26.0283C19.4335 25.9908 19.4473 25.9549 19.4699 25.9247L21.429 23.3093C21.7632 22.8638 21.9066 22.3037 21.8279 21.7523C21.7491 21.201 21.4545 20.7035 21.009 20.3693L18.811 18.7182C18.5138 18.4949 18.152 18.3742 17.7802 18.3743H10.7767C10.1853 18.375 9.60007 18.2541 9.05736 18.0191C9.01541 18.0011 8.96904 17.9962 8.92426 18.0049C8.87947 18.0137 8.83835 18.0357 8.80623 18.0681L8.03623 18.8381C7.98124 18.893 7.93788 18.9585 7.90872 19.0306C7.87956 19.1026 7.86521 19.1798 7.86651 19.2576C7.86782 19.3353 7.88476 19.412 7.91632 19.483C7.94789 19.554 7.99343 19.618 8.05023 19.6711L9.15448 20.7858C9.29149 20.9226 9.47716 20.9994 9.67073 20.9993H10.0706C10.3016 20.9993 10.4889 21.1875 10.4889 21.4185V22.3311C10.4889 22.3861 10.478 22.4405 10.4569 22.4913C10.4359 22.5421 10.405 22.5883 10.366 22.6271C10.3271 22.666 10.2809 22.6968 10.2301 22.7178C10.1792 22.7387 10.1247 22.7495 10.0697 22.7493H9.67073C9.34521 22.7503 9.02274 22.6866 8.72203 22.5619C8.42132 22.4372 8.14836 22.2541 7.91898 22.0231L6.82961 20.9241C6.38208 20.4823 6.12705 19.8817 6.11998 19.2528C6.11858 18.9461 6.17811 18.6421 6.29512 18.3585C6.41213 18.0749 6.58429 17.8174 6.80161 17.6008L7.36248 17.0382C7.40211 16.9983 7.4257 16.9453 7.42877 16.8891C7.43183 16.833 7.41416 16.7777 7.37911 16.7337C6.89377 16.1239 6.58183 15.3945 6.47611 14.6223L5.50486 7.58296C5.49946 7.54383 5.48522 7.50645 5.46321 7.47365C5.4412 7.44085 5.41201 7.4135 5.37785 7.39368C5.34368 7.37385 5.30545 7.36208 5.26605 7.35925C5.22666 7.35642 5.18713 7.3626 5.15048 7.37734L3.90098 7.88134L2.78711 5.87758L4.16786 4.38133H3.46173C3.43082 4.38118 3.4003 4.37438 3.37225 4.36137C3.3442 4.34837 3.31928 4.32948 3.29919 4.30598C3.2791 4.28248 3.2643 4.25493 3.25581 4.22521C3.24732 4.19548 3.24533 4.16427 3.24998 4.13371C3.3092 3.71514 3.51749 3.332 3.83658 3.0547C4.15567 2.77741 4.56412 2.62459 4.98686 2.62433H5.61686V1.98558C5.61698 1.9433 5.62844 1.90183 5.65006 1.86549C5.67167 1.82915 5.70264 1.79927 5.73973 1.77898C5.77683 1.75869 5.81869 1.74873 5.86095 1.75013C5.90321 1.75153 5.94432 1.76425 5.97998 1.78696L7.09473 2.62171H11.6684C11.874 2.62171 12.0411 2.78883 12.0411 2.99533C12.0411 3.57546 11.7392 4.08383 11.2842 4.37346H13.6187C13.8287 4.37346 13.9994 4.54496 13.9994 4.75496C14 5.19946 13.8903 5.63716 13.6802 6.02885C13.47 6.42055 13.166 6.754 12.7954 6.99933H15.0546C15.2541 6.99933 15.4151 7.16121 15.4151 7.36071C15.4157 7.99865 15.2425 8.62469 14.9139 9.17153C14.5854 9.71837 14.114 10.1653 13.5505 10.4643C13.701 10.4871 13.855 10.4993 14.0107 10.4993H14.0099ZM5.68861 5.73321C5.80464 5.73321 5.91592 5.68712 5.99797 5.60507C6.08002 5.52302 6.12611 5.41174 6.12611 5.29571V4.81183C6.12875 4.75279 6.1194 4.69383 6.09863 4.6385C6.07786 4.58317 6.04609 4.53262 6.00525 4.48991C5.9644 4.4472 5.91532 4.4132 5.86098 4.38997C5.80663 4.36675 5.74815 4.35477 5.68905 4.35477C5.62995 4.35477 5.57146 4.36675 5.51711 4.38997C5.46277 4.4132 5.41369 4.4472 5.37285 4.48991C5.332 4.53262 5.30023 4.58317 5.27946 4.6385C5.25869 4.69383 5.24934 4.75279 5.25198 4.81183V5.29658C5.25198 5.41262 5.29808 5.5239 5.38013 5.60594C5.46217 5.68799 5.57345 5.73408 5.68948 5.73408L5.68861 5.73321Z" fill="#141414"/>
<path id="Vector_2" d="M2.47392 6.21484L1.99879 6.73109C1.89809 6.84002 1.82471 6.97132 1.7847 7.11417C1.74468 7.25702 1.73919 7.40733 1.76867 7.55272C1.89117 8.15384 2.48617 8.45222 3.05492 8.22209L3.49154 8.04622L2.47392 6.21484ZM5.5058 13.998H4.9458C4.64007 13.9981 4.33736 14.0584 4.05496 14.1756C3.77257 14.2927 3.51601 14.4643 3.29995 14.6806C3.08389 14.8969 2.91256 15.1537 2.79575 15.4362C2.67894 15.7187 2.61894 16.0215 2.61917 16.3272V18.3922C2.61917 19.0546 2.87729 19.6776 3.34542 20.1457L3.68842 20.4887C3.71931 20.5197 3.75599 20.5442 3.79638 20.561C3.83677 20.5777 3.88007 20.5864 3.9238 20.5864C3.96752 20.5864 4.01082 20.5777 4.05121 20.561C4.0916 20.5442 4.12828 20.5197 4.15917 20.4887L4.92305 19.7222C4.98535 19.6597 5.02033 19.5751 5.02033 19.4868C5.02033 19.3986 4.98535 19.314 4.92305 19.2515L4.58005 18.9085C4.44354 18.7713 4.3668 18.5857 4.36654 18.3922V16.3272C4.36654 16.007 4.62642 15.748 4.9458 15.748H5.85055C5.73662 15.4211 5.65543 15.0837 5.60817 14.7408L5.5058 13.998ZM16.6043 19.2488V20.277C16.6042 20.3869 16.5825 20.4957 16.5403 20.5972C16.4981 20.6987 16.4363 20.7909 16.3584 20.8685L15.5867 21.6367C15.3544 21.8682 15.1704 22.1435 15.0451 22.4466C14.9199 22.7496 14.8559 23.0745 14.8569 23.4025V24.2223C14.8569 24.3746 14.9794 24.4988 15.1325 24.4988H16.3287C16.4019 24.4986 16.472 24.4694 16.5236 24.4175C16.5753 24.3657 16.6043 24.2955 16.6043 24.2223V23.4016C16.6043 23.2038 16.683 23.014 16.823 22.874L19.4218 20.2717L18.2843 19.4177C18.1388 19.3082 17.9616 19.2489 17.7794 19.2488H16.6043Z" fill="#141414"/>
</g>
</g>
</svg>
