<svg width="40" height="40" viewBox="0 0 40 40" fill="none" xmlns="http://www.w3.org/2000/svg">
<circle cx="20" cy="20" r="19.5" stroke="#E4E4E5"/>
<path d="M20.0056 17.7496H23.9656C24.1479 17.7496 24.3256 17.767 24.4978 17.8008V16.3456C24.4978 15.5693 25.1266 14.9393 25.9023 14.9393H26.5515C26.6617 14.9393 26.7517 14.8493 26.7517 14.7391V14.0849C26.7517 13.9341 26.8738 13.8121 27.024 13.8121C27.4942 13.8121 27.875 14.1934 27.875 14.6637V15.7825C27.875 16.5588 27.2461 17.1888 26.4705 17.1888H25.8219C25.7956 17.1888 25.7696 17.1939 25.7453 17.204C25.721 17.2141 25.6989 17.2288 25.6803 17.2474C25.6617 17.266 25.6469 17.2881 25.6369 17.3124C25.6268 17.3367 25.6216 17.3627 25.6216 17.389V18.3008C25.966 18.5586 26.2455 18.8931 26.4379 19.2779C26.6303 19.6626 26.7302 20.0869 26.7298 20.5171V24.5558C26.7298 24.8837 26.6183 25.2019 26.4136 25.4581L24.5945 27.7351C24.5598 27.7786 24.5158 27.8138 24.4656 27.8379C24.4155 27.8621 24.3605 27.8746 24.3048 27.8746H23.6203C23.596 27.8746 23.5723 27.8679 23.5516 27.8552C23.531 27.8424 23.5143 27.8242 23.5035 27.8026C23.4926 27.7809 23.488 27.7566 23.4901 27.7325C23.4923 27.7084 23.5011 27.6853 23.5156 27.6659L24.7751 25.9846C24.9899 25.6981 25.0821 25.3381 25.0315 24.9837C24.9809 24.6292 24.7915 24.3094 24.5051 24.0946L23.0921 23.0331C22.901 22.8896 22.6685 22.812 22.4295 22.8121H17.9272C17.547 22.8125 17.1708 22.7348 16.8219 22.5837C16.7949 22.5722 16.7651 22.569 16.7363 22.5746C16.7075 22.5802 16.6811 22.5944 16.6605 22.6152L16.1655 23.1102C16.1301 23.1455 16.1022 23.1876 16.0835 23.2339C16.0647 23.2803 16.0555 23.3299 16.0563 23.3799C16.0572 23.4298 16.0681 23.4791 16.0884 23.5248C16.1087 23.5705 16.1379 23.6116 16.1745 23.6457L16.8843 24.3623C16.9724 24.4502 17.0918 24.4996 17.2162 24.4996H17.4733C17.6218 24.4996 17.7421 24.6205 17.7421 24.769V25.3557C17.7421 25.3911 17.7352 25.4261 17.7216 25.4587C17.7081 25.4914 17.6882 25.521 17.6632 25.546C17.6382 25.571 17.6085 25.5908 17.5758 25.6043C17.5431 25.6177 17.5081 25.6246 17.4727 25.6246H17.2162C17.0069 25.6252 16.7996 25.5842 16.6063 25.5041C16.413 25.4239 16.2375 25.3062 16.0901 25.1577L15.3898 24.4512C15.1021 24.1672 14.9381 23.7811 14.9336 23.3768C14.9327 23.1796 14.9709 22.9842 15.0462 22.8019C15.1214 22.6196 15.2321 22.454 15.3718 22.3148L15.7323 21.9531C15.7578 21.9275 15.773 21.8934 15.7749 21.8573C15.7769 21.8212 15.7655 21.7856 15.743 21.7574C15.431 21.3654 15.2305 20.8965 15.1625 20.4001L14.5381 15.8748C14.5347 15.8496 14.5255 15.8256 14.5114 15.8045C14.4972 15.7834 14.4785 15.7658 14.4565 15.7531C14.4345 15.7403 14.4099 15.7328 14.3846 15.7309C14.3593 15.7291 14.3339 15.7331 14.3103 15.7426L13.5071 16.0666L12.791 14.7784L13.6786 13.8166H13.2247C13.2048 13.8165 13.1852 13.8121 13.1672 13.8037C13.1491 13.7954 13.1331 13.7832 13.1202 13.7681C13.1073 13.753 13.0978 13.7353 13.0923 13.7162C13.0869 13.6971 13.0856 13.677 13.0886 13.6574C13.1266 13.3883 13.2605 13.142 13.4657 12.9637C13.6708 12.7855 13.9334 12.6872 14.2051 12.6871H14.6101V12.2764C14.6102 12.2493 14.6176 12.2226 14.6315 12.1992C14.6454 12.1759 14.6653 12.1567 14.6891 12.1436C14.713 12.1306 14.7399 12.1242 14.7671 12.1251C14.7942 12.126 14.8206 12.1342 14.8436 12.1488L15.5602 12.6854H18.5004C18.6326 12.6854 18.74 12.7928 18.74 12.9256C18.74 13.2985 18.546 13.6253 18.2535 13.8115H19.7542C19.8892 13.8115 19.9989 13.9218 19.9989 14.0568C19.9993 14.3425 19.9288 14.6239 19.7937 14.8757C19.6586 15.1275 19.4632 15.3419 19.2249 15.4996H20.6773C20.8055 15.4996 20.909 15.6036 20.909 15.7319C20.9094 16.142 20.798 16.5444 20.5868 16.896C20.3756 17.2475 20.0726 17.5349 19.7103 17.7271C19.8071 17.7417 19.9061 17.7496 20.0062 17.7496H20.0056ZM14.6563 14.6856C14.7309 14.6856 14.8024 14.656 14.8551 14.6033C14.9079 14.5505 14.9375 14.479 14.9375 14.4044V14.0933C14.9392 14.0554 14.9332 14.0175 14.9199 13.9819C14.9065 13.9463 14.8861 13.9138 14.8598 13.8864C14.8336 13.8589 14.802 13.8371 14.7671 13.8221C14.7321 13.8072 14.6945 13.7995 14.6565 13.7995C14.6186 13.7995 14.581 13.8072 14.546 13.8221C14.5111 13.8371 14.4795 13.8589 14.4533 13.8864C14.427 13.9138 14.4066 13.9463 14.3932 13.9819C14.3799 14.0175 14.3739 14.0554 14.3756 14.0933V14.4049C14.3756 14.4795 14.4052 14.5511 14.458 14.6038C14.5107 14.6566 14.5822 14.6862 14.6568 14.6862L14.6563 14.6856Z" fill="#141414"/>
<path d="M12.5904 14.9961L12.2849 15.328C12.2202 15.398 12.173 15.4824 12.1473 15.5742C12.1216 15.6661 12.1181 15.7627 12.137 15.8562C12.2158 16.2426 12.5983 16.4344 12.9639 16.2865L13.2446 16.1734L12.5904 14.9961V14.9961ZM14.5394 19.9995H14.1794C13.9829 19.9996 13.7883 20.0384 13.6068 20.1137C13.4252 20.189 13.2603 20.2993 13.1214 20.4384C12.9825 20.5774 12.8724 20.7425 12.7973 20.9241C12.7222 21.1057 12.6836 21.3004 12.6838 21.4969V22.8244C12.6838 23.2502 12.8497 23.6507 13.1506 23.9517L13.3711 24.1722C13.391 24.1921 13.4146 24.2078 13.4405 24.2186C13.4665 24.2294 13.4943 24.2349 13.5224 24.2349C13.5505 24.2349 13.5784 24.2294 13.6043 24.2186C13.6303 24.2078 13.6539 24.1921 13.6738 24.1722L14.1648 23.6794C14.2049 23.6392 14.2274 23.5848 14.2274 23.5281C14.2274 23.4714 14.2049 23.417 14.1648 23.3768L13.9443 23.1563C13.8566 23.0681 13.8072 22.9488 13.8071 22.8244V21.4969C13.8071 21.291 13.9741 21.1245 14.1794 21.1245H14.7611C14.6878 20.9144 14.6356 20.6975 14.6053 20.4771L14.5394 19.9995V19.9995ZM21.6742 23.3751V24.036C21.6741 24.1067 21.6602 24.1767 21.633 24.2419C21.6059 24.3072 21.5662 24.3664 21.5161 24.4163L21.02 24.9102C20.8707 25.059 20.7524 25.2359 20.6719 25.4308C20.5913 25.6256 20.5502 25.8345 20.5509 26.0453V26.5723C20.5509 26.6702 20.6296 26.7501 20.7281 26.7501H21.497C21.544 26.7499 21.5891 26.7312 21.6223 26.6978C21.6555 26.6645 21.6742 26.6194 21.6742 26.5723V26.0447C21.6742 25.9176 21.7248 25.7955 21.8148 25.7055L23.4854 24.0327L22.7542 23.4837C22.6606 23.4132 22.5467 23.3751 22.4296 23.3751H21.6742V23.3751Z" fill="#141414"/>
</svg>
