<svg width="24" height="24" viewBox="0 0 24 24" fill="none" xmlns="http://www.w3.org/2000/svg">
<g id="Icons/Lock" clip-path="url(#clip0_16454_4755)">
<path id="Vector" d="M18.1944 24.0007H5.80369C5.67749 24.0008 5.55252 23.9761 5.43591 23.9278C5.3193 23.8796 5.21335 23.8088 5.12411 23.7196C5.03488 23.6303 4.96412 23.5244 4.91587 23.4078C4.86762 23.2912 4.84284 23.1662 4.84294 23.04V13.872C4.84294 13.341 5.27269 12.9075 5.80369 12.9075H6.96769V11.427C6.96769 8.6535 9.22519 6.396 11.9987 6.396C14.7722 6.396 17.0297 8.6535 17.0297 11.427V12.9075H18.1937C18.7247 12.9075 19.1544 13.341 19.1544 13.872V23.04C19.1545 23.1662 19.1298 23.2912 19.0815 23.4078C19.0333 23.5244 18.9625 23.6303 18.8733 23.7196C18.784 23.8088 18.6781 23.8796 18.5615 23.9278C18.4449 23.9761 18.3199 24.0008 18.1937 24.0007H18.1944ZM12.6287 18.9307C13.7694 18.2865 13.3119 16.5443 11.9994 16.5443C10.6907 16.548 10.2339 18.2827 11.3702 18.9307V20.1727C11.3702 21.009 12.6279 21.009 12.6279 20.1727L12.6287 18.9307ZM9.85519 12.9067H14.1482V11.4263C14.1482 10.2428 13.1837 9.282 11.9994 9.282C10.8152 9.282 9.85519 10.2428 9.85519 11.4263V12.9067ZM4.54669 11.544H1.55869C1.07044 11.544 0.679688 11.1495 0.679688 10.665C0.679688 10.1805 1.07044 9.786 1.55869 9.786H4.54669C5.03119 9.786 5.42569 10.1805 5.42569 10.665C5.42569 11.1495 5.03119 11.544 4.54669 11.544V11.544ZM6.65194 6.84075C6.44866 6.84113 6.25189 6.76907 6.09694 6.6375L3.72994 4.692C3.64093 4.61881 3.56727 4.52874 3.51319 4.42699C3.45911 4.32523 3.42567 4.21379 3.4148 4.09907C3.40392 3.98435 3.41583 3.86861 3.44984 3.75851C3.48384 3.64841 3.53927 3.54611 3.61294 3.4575C3.68586 3.36822 3.77572 3.29424 3.87734 3.23982C3.97897 3.1854 4.09034 3.1516 4.20507 3.14038C4.3198 3.12916 4.43562 3.14073 4.54586 3.17443C4.6561 3.20813 4.75859 3.2633 4.84744 3.33675L7.21444 5.28225C7.85119 5.80575 7.47619 6.84075 6.65194 6.837V6.84075ZM11.9994 4.77C11.7664 4.7696 11.5431 4.67687 11.3783 4.51211C11.2136 4.34735 11.1208 4.124 11.1204 3.891V0.879C11.1204 0.3945 11.5149 0 11.9994 0C12.4839 0 12.8784 0.3945 12.8784 0.879V3.891C12.8784 4.3755 12.4839 4.77 11.9994 4.77ZM17.3469 6.84075C16.5189 6.84075 16.1477 5.80575 16.7844 5.28225L19.1514 3.33675C20.0574 2.59425 21.1712 3.95025 20.2689 4.6965L17.9019 6.642C17.7458 6.77109 17.5495 6.84165 17.3469 6.8415V6.84075ZM22.4409 11.544H19.4252C18.9369 11.544 18.5462 11.1495 18.5462 10.665C18.5462 10.1805 18.9369 9.786 19.4252 9.786H22.4409C22.9292 9.786 23.3199 10.1805 23.3199 10.665C23.3199 11.1495 22.9292 11.544 22.4409 11.544Z" fill="#E4D6FF"/>
</g>
<defs>
<clipPath id="clip0_16454_4755">
<rect width="24" height="24" fill="white"/>
</clipPath>
</defs>
</svg>
