<svg width="32" height="32" viewBox="0 0 32 32" fill="none" xmlns="http://www.w3.org/2000/svg">
<circle cx="16" cy="16" r="16" fill="white"/>
<path d="M15.175 8.825L8.225 15.775C8.14167 15.8583 8.08333 15.9417 8.05 16.025C8.01667 16.1083 8 16.2 8 16.3C8 16.4 8.01667 16.4917 8.05 16.575C8.08333 16.6583 8.14167 16.7417 8.225 16.825L15.2 23.8C15.3333 23.9333 15.5 24 15.7 24C15.9 24 16.075 23.925 16.225 23.775C16.375 23.625 16.45 23.45 16.45 23.25C16.45 23.05 16.375 22.875 16.225 22.725L10.55 17.05H22.95C23.1667 17.05 23.3458 16.9792 23.4875 16.8375C23.6292 16.6958 23.7 16.5167 23.7 16.3C23.7 16.0833 23.6292 15.9042 23.4875 15.7625C23.3458 15.6208 23.1667 15.55 22.95 15.55L10.55 15.55L16.25 9.85C16.3833 9.71667 16.45 9.55 16.45 9.35C16.45 9.15 16.375 8.975 16.225 8.825C16.075 8.675 15.9 8.6 15.7 8.6C15.5 8.6 15.325 8.675 15.175 8.825Z" fill="#141414"/>
</svg>
