<svg width="24" height="24" viewBox="0 0 24 24" fill="none" xmlns="http://www.w3.org/2000/svg">
<path d="M11.975 19.175C12.1583 19.175 12.3167 19.1042 12.45 18.9625C12.5833 18.8208 12.65 18.6583 12.65 18.475V17.875C13.65 17.7583 14.4375 17.4208 15.0125 16.8625C15.5875 16.3042 15.875 15.5917 15.875 14.725C15.875 13.8583 15.6375 13.1667 15.1625 12.65C14.6875 12.1333 13.8667 11.6833 12.7 11.3C11.65 10.95 10.9292 10.6042 10.5375 10.2625C10.1458 9.92083 9.95 9.475 9.95 8.925C9.95 8.40833 10.1375 8.00417 10.5125 7.7125C10.8875 7.42083 11.4 7.275 12.05 7.275C12.45 7.275 12.8083 7.35 13.125 7.5C13.4417 7.65 13.7167 7.875 13.95 8.175C14.0667 8.30833 14.2083 8.4 14.375 8.45C14.5417 8.5 14.7 8.48333 14.85 8.4C15.0333 8.31667 15.1542 8.18333 15.2125 8C15.2708 7.81667 15.2417 7.65 15.125 7.5C14.8417 7.1 14.4958 6.78333 14.0875 6.55C13.6792 6.31667 13.2167 6.175 12.7 6.125V5.525C12.7 5.34167 12.6333 5.18333 12.5 5.05C12.3667 4.91667 12.2083 4.85 12.025 4.85C11.8417 4.85 11.6792 4.91667 11.5375 5.05C11.3958 5.18333 11.325 5.34167 11.325 5.525V6.125C10.475 6.24167 9.80417 6.55 9.3125 7.05C8.82083 7.55 8.575 8.175 8.575 8.925C8.575 9.74167 8.7875 10.3917 9.2125 10.875C9.6375 11.3583 10.425 11.8167 11.575 12.25C12.7583 12.7 13.5417 13.0917 13.925 13.425C14.3083 13.7583 14.5 14.1917 14.5 14.725C14.5 15.275 14.275 15.7375 13.825 16.1125C13.375 16.4875 12.825 16.675 12.175 16.675C11.625 16.675 11.1208 16.5417 10.6625 16.275C10.2042 16.0083 9.85 15.6333 9.6 15.15C9.51667 15.0167 9.40417 14.9125 9.2625 14.8375C9.12083 14.7625 8.975 14.75 8.825 14.8C8.60833 14.8833 8.4625 15.0125 8.3875 15.1875C8.3125 15.3625 8.33333 15.5417 8.45 15.725C8.78333 16.275 9.17917 16.7208 9.6375 17.0625C10.0958 17.4042 10.6417 17.6583 11.275 17.825V18.5C11.275 18.6833 11.3458 18.8417 11.4875 18.975C11.6292 19.1083 11.7917 19.175 11.975 19.175ZM12 22C10.5833 22 9.26667 21.7458 8.05 21.2375C6.83333 20.7292 5.775 20.025 4.875 19.125C3.975 18.225 3.27083 17.1667 2.7625 15.95C2.25417 14.7333 2 13.4167 2 12C2 10.6 2.25417 9.29167 2.7625 8.075C3.27083 6.85833 3.975 5.8 4.875 4.9C5.775 4 6.83333 3.29167 8.05 2.775C9.26667 2.25833 10.5833 2 12 2C13.4 2 14.7083 2.25833 15.925 2.775C17.1417 3.29167 18.2 4 19.1 4.9C20 5.8 20.7083 6.85833 21.225 8.075C21.7417 9.29167 22 10.6 22 12C22 13.4167 21.7417 14.7333 21.225 15.95C20.7083 17.1667 20 18.225 19.1 19.125C18.2 20.025 17.1417 20.7292 15.925 21.2375C14.7083 21.7458 13.4 22 12 22ZM12 20.5C14.4167 20.5 16.4375 19.6875 18.0625 18.0625C19.6875 16.4375 20.5 14.4167 20.5 12C20.5 9.58333 19.6875 7.5625 18.0625 5.9375C16.4375 4.3125 14.4167 3.5 12 3.5C9.58333 3.5 7.5625 4.3125 5.9375 5.9375C4.3125 7.5625 3.5 9.58333 3.5 12C3.5 14.4167 4.3125 16.4375 5.9375 18.0625C7.5625 19.6875 9.58333 20.5 12 20.5Z" fill="#7633FF"/>
</svg>
