<svg width="24" height="24" viewBox="0 0 24 24" fill="none" xmlns="http://www.w3.org/2000/svg">
<path d="M6.23816 15.225C6.08816 15.075 6.00899 14.9 6.00066 14.7C5.99232 14.5 6.06316 14.325 6.21316 14.175L11.1632 9.225C11.2465 9.14167 11.3298 9.08333 11.4132 9.05C11.4965 9.01667 11.5882 9 11.6882 9C11.7882 9 11.8798 9.01667 11.9632 9.05C12.0465 9.08333 12.1298 9.14167 12.2132 9.225L17.1632 14.15C17.3132 14.2833 17.3882 14.4542 17.3882 14.6625C17.3882 14.8708 17.3132 15.05 17.1632 15.2C17.0132 15.35 16.834 15.425 16.6257 15.425C16.4173 15.425 16.2382 15.35 16.0882 15.2L11.6882 10.825L7.28816 15.25C7.15482 15.4 6.98399 15.4708 6.77566 15.4625C6.56732 15.4542 6.38816 15.375 6.23816 15.225Z" fill="#141414"/>
</svg>
