<svg width="24" height="24" viewBox="0 0 24 24" fill="none" xmlns="http://www.w3.org/2000/svg">
<path fill-rule="evenodd" clip-rule="evenodd" d="M8.39976 4.69934C8.05494 4.69934 7.72423 4.83633 7.48041 5.08015C7.23658 5.32398 7.0996 5.65468 7.0996 5.99951C7.0996 6.34433 7.23658 6.67504 7.48041 6.91886C7.72235 7.16081 8.04983 7.29755 8.39176 7.29965H11.0671C10.9614 7.00649 10.8198 6.66988 10.6366 6.33685C10.1276 5.41127 9.41061 4.69934 8.39976 4.69934ZM5.6996 5.99951C5.6996 6.45815 5.81628 6.90476 6.03321 7.29965H3.99936C3.61276 7.29965 3.29936 7.61305 3.29936 7.99965V12C3.29936 12.3866 3.61276 12.7 3.99936 12.7H4.89949V20.0006C4.89949 20.3872 5.21289 20.7006 5.59949 20.7006H18.4005C18.7871 20.7006 19.1005 20.3872 19.1005 20.0006V12.7H20.0007C20.3873 12.7 20.7007 12.3866 20.7007 12V7.99965C20.7007 7.61305 20.3873 7.29965 20.0007 7.29965H17.9668C18.1838 6.90476 18.3005 6.45815 18.3005 5.99951C18.3005 5.28338 18.016 4.59658 17.5096 4.0902C17.0032 3.58382 16.3164 3.29934 15.6003 3.29934C13.8109 3.29934 12.7277 4.58759 12.1367 5.66217C12.0887 5.74949 12.0432 5.83664 12 5.9231C11.9569 5.83664 11.9114 5.74949 11.8633 5.66217C11.2723 4.58759 10.1891 3.29934 8.39976 3.29934C7.68363 3.29934 6.99684 3.58382 6.49046 4.0902C5.98408 4.59658 5.6996 5.28338 5.6996 5.99951ZM15.6083 7.29965H12.933C13.0387 7.00649 13.1803 6.66988 13.3634 6.33685C13.8725 5.41127 14.5894 4.69934 15.6003 4.69934C15.9451 4.69934 16.2758 4.83633 16.5196 5.08015C16.7635 5.32398 16.9005 5.65468 16.9005 5.99951C16.9005 6.34433 16.7635 6.67504 16.5196 6.91886C16.2777 7.16081 15.9502 7.29755 15.6083 7.29965ZM12.7 8.69967V11.3H19.3007V8.69965H15.6119C15.608 8.69967 15.6042 8.69967 15.6003 8.69967H12.7ZM4.69936 8.69965H8.38818L8.39976 8.69967H11.3V11.3H4.69936V8.69965ZM11.3 12.7H6.29949V19.3006H11.3V12.7ZM12.7 19.3006V12.7H17.7005V19.3006H12.7Z" fill="#A5A8AC"/>
</svg>
