<svg width="24" height="24" viewBox="0 0 24 24" fill="none" xmlns="http://www.w3.org/2000/svg">
<path d="M19.35 20.45L13.325 14.425C12.825 14.8583 12.2417 15.1958 11.575 15.4375C10.9083 15.6792 10.2 15.8 9.45 15.8C7.65 15.8 6.125 15.175 4.875 13.925C3.625 12.675 3 11.1667 3 9.4C3 7.63333 3.625 6.125 4.875 4.875C6.125 3.625 7.64167 3 9.425 3C11.1917 3 12.6958 3.625 13.9375 4.875C15.1792 6.125 15.8 7.63333 15.8 9.4C15.8 10.1167 15.6833 10.8083 15.45 11.475C15.2167 12.1417 14.8667 12.7667 14.4 13.35L20.475 19.375C20.625 19.5083 20.7 19.6792 20.7 19.8875C20.7 20.0958 20.6167 20.2833 20.45 20.45C20.3 20.6 20.1167 20.675 19.9 20.675C19.6833 20.675 19.5 20.6 19.35 20.45ZM9.425 14.3C10.775 14.3 11.925 13.8208 12.875 12.8625C13.825 11.9042 14.3 10.75 14.3 9.4C14.3 8.05 13.825 6.89583 12.875 5.9375C11.925 4.97917 10.775 4.5 9.425 4.5C8.05833 4.5 6.89583 4.97917 5.9375 5.9375C4.97917 6.89583 4.5 8.05 4.5 9.4C4.5 10.75 4.97917 11.9042 5.9375 12.8625C6.89583 13.8208 8.05833 14.3 9.425 14.3Z" fill="#A5A8AC"/>
</svg>
