<svg width="34" height="34" viewBox="0 0 34 34" fill="none" xmlns="http://www.w3.org/2000/svg">
<path fill-rule="evenodd" clip-rule="evenodd" d="M17 6C10.9249 6 6 10.9249 6 17C6 23.0751 10.9249 28 17 28C23.0751 28 28 23.0751 28 17C28 10.9249 23.0751 6 17 6ZM4 17C4 9.8203 9.8203 4 17 4C24.1797 4 30 9.8203 30 17C30 24.1797 24.1797 30 17 30C9.8203 30 4 24.1797 4 17ZM17.7071 11.4929L22.504 16.2898C22.5146 16.3003 22.5249 16.311 22.5351 16.322C22.6135 16.4069 22.6746 16.5022 22.7182 16.6032C22.7708 16.7248 22.8 16.859 22.8 17C22.8 17.141 22.7708 17.2752 22.7182 17.3968C22.6746 17.4978 22.6135 17.5931 22.5351 17.678C22.5249 17.689 22.5146 17.6997 22.504 17.7102L17.7071 22.5071C17.3166 22.8976 16.6834 22.8976 16.2929 22.5071C15.9024 22.1166 15.9024 21.4834 16.2929 21.0929L19.3858 18H12.2C11.6477 18 11.2 17.5523 11.2 17C11.2 16.4477 11.6477 16 12.2 16H19.3858L16.2929 12.9071C15.9024 12.5166 15.9024 11.8834 16.2929 11.4929C16.6834 11.1024 17.3166 11.1024 17.7071 11.4929Z" fill="black"/>
</svg>
