<svg width="34" height="34" viewBox="0 0 34 34" fill="none" xmlns="http://www.w3.org/2000/svg">
<path fill-rule="evenodd" clip-rule="evenodd" d="M16.5528 4.10557C16.8343 3.96481 17.1657 3.96481 17.4472 4.10557L29.4472 10.1056C29.786 10.275 30 10.6212 30 11C30 11.3788 29.786 11.725 29.4472 11.8944L17.4472 17.8944C17.1657 18.0352 16.8343 18.0352 16.5528 17.8944L4.55279 11.8944C4.21401 11.725 4.00001 11.3788 4.00001 11C4.00001 10.6212 4.21401 10.275 4.55279 10.1056L16.5528 4.10557ZM7.23607 11L17 15.882L26.7639 11L17 6.11803L7.23607 11ZM4.10558 22.5528C4.35257 22.0588 4.95324 21.8586 5.44722 22.1056L17 27.882L28.5528 22.1056C29.0468 21.8586 29.6474 22.0588 29.8944 22.5528C30.1414 23.0468 29.9412 23.6474 29.4472 23.8944L17.4472 29.8944C17.1657 30.0352 16.8343 30.0352 16.5528 29.8944L4.55279 23.8944C4.05881 23.6474 3.85859 23.0468 4.10558 22.5528ZM5.44722 16.1056C4.95324 15.8586 4.35257 16.0588 4.10558 16.5528C3.85859 17.0468 4.05881 17.6474 4.55279 17.8944L16.5528 23.8944C16.8343 24.0352 17.1657 24.0352 17.4472 23.8944L29.4472 17.8944C29.9412 17.6474 30.1414 17.0468 29.8944 16.5528C29.6474 16.0588 29.0468 15.8586 28.5528 16.1056L17 21.882L5.44722 16.1056Z" fill="black"/>
</svg>
