<svg width="24" height="24" viewBox="0 0 24 24" fill="none" xmlns="http://www.w3.org/2000/svg">
<path d="M16.0884 19.0018V17.446C16.0884 16.6208 15.7436 15.8294 15.1298 15.2459C14.5161 14.6624 13.6836 14.3345 12.8156 14.3345H6.26995C5.40195 14.3345 4.56949 14.6624 3.95572 15.2459C3.34195 15.8294 2.99713 16.6208 2.99713 17.446V19.0018" stroke="black" stroke-linecap="round" stroke-linejoin="round"/>
<path d="M9.54275 11.223C11.3503 11.223 12.8156 9.82996 12.8156 8.11152C12.8156 6.39307 11.3503 5 9.54275 5C7.73522 5 6.26993 6.39307 6.26993 8.11152C6.26993 9.82996 7.73522 11.223 9.54275 11.223Z" stroke="black" stroke-linecap="round" stroke-linejoin="round"/>
<path d="M20.9983 19.0018V17.4461C20.9977 16.7567 20.7563 16.087 20.3119 15.5421C19.8675 14.9972 19.2453 14.608 18.543 14.4357" stroke="black" stroke-linecap="round" stroke-linejoin="round"/>
<path d="M15.2702 5.1011C15.9744 5.27247 16.5985 5.66172 17.0442 6.20749C17.49 6.75326 17.7319 7.4245 17.7319 8.11539C17.7319 8.80628 17.49 9.47752 17.0442 10.0233C16.5985 10.5691 15.9744 10.9583 15.2702 11.1297" stroke="black" stroke-linecap="round" stroke-linejoin="round"/>
</svg>
