<svg width="56" height="56" viewBox="0 0 56 56" fill="none" xmlns="http://www.w3.org/2000/svg">
<rect x="0.5" y="0.5" width="55" height="55" rx="3.5" fill="white" stroke="#E4E4E5"/>
<path d="M37.8597 23.1324C37.7449 23.2043 35.0121 24.721 35.0121 28.0838C35.1409 31.9188 38.4608 33.2638 38.5177 33.2638C38.4608 33.3356 38.0165 35.0959 36.7005 36.9411C35.6561 38.5306 34.4969 40.1331 32.7367 40.1331C31.0623 40.1331 30.4612 39.0738 28.5292 39.0738C26.4544 39.0738 25.8673 40.1331 24.2788 40.1331C22.5185 40.1331 21.2735 38.4447 20.1721 36.8702C18.7413 34.8094 17.5252 31.5754 17.4823 28.4702C17.4533 26.8247 17.7688 25.2072 18.5696 23.8334C19.6999 21.9154 21.7177 20.6134 23.9213 20.5704C25.6097 20.5135 27.1124 21.7296 28.1428 21.7296C29.1303 21.7296 30.9764 20.5704 33.0652 20.5704C33.9668 20.5714 36.3711 20.843 37.8597 23.1324ZM28 20.2419C27.6995 18.7392 28.5292 17.2366 29.302 16.278C30.2895 15.1188 31.8491 14.332 33.194 14.332C33.2799 15.8347 32.7357 17.3084 31.7632 18.3818C30.8905 19.541 29.3879 20.4136 28 20.2419Z" fill="#141414"/>
</svg>