<svg width="56" height="56" viewBox="0 0 56 56" fill="none" xmlns="http://www.w3.org/2000/svg">
<rect x="0.5" y="0.5" width="55" height="55" rx="3.5" fill="white" stroke="#E4E4E5"/>
<path d="M28 16C21.3724 16 16 21.3724 16 28C16 34.6276 21.3724 40 28 40C34.6276 40 40 34.6276 40 28C40 21.3724 34.6276 16 28 16Z" fill="url(#paint0_linear_488_10809)"/>
<path d="M28.5779 30.0936H31.5973L32.0715 27.0264H28.5779V25.3499C28.5779 24.0759 28.9944 22.946 30.1862 22.946H32.1013V20.2697C31.7647 20.2242 31.053 20.125 29.7084 20.125C26.9003 20.125 25.2541 21.6078 25.2541 24.9865V27.027H22.3672V30.0942H25.2535V38.5245C25.8252 38.6097 26.4044 38.668 26.9989 38.668C27.5361 38.668 28.0605 38.619 28.5779 38.549V30.0936Z" fill="white"/>
<defs>
<linearGradient id="paint0_linear_488_10809" x1="19.5958" y1="19.5958" x2="37.969" y2="37.969" gradientUnits="userSpaceOnUse">
<stop stop-color="#2AA4F4"/>
<stop offset="1" stop-color="#007AD9"/>
</linearGradient>
</defs>
</svg>