<svg width="56" height="56" viewBox="0 0 56 56" fill="none" xmlns="http://www.w3.org/2000/svg">
<rect x="0.5" y="0.5" width="55" height="55" rx="3.5" fill="white" stroke="#E4E4E5"/>
<path d="M39.4424 25.7138H38.5026V25.6654H28.0026V30.332H34.596C33.6341 33.0486 31.0494 34.9987 28.0026 34.9987C24.1369 34.9987 21.0026 31.8644 21.0026 27.9987C21.0026 24.1329 24.1369 20.9987 28.0026 20.9987C29.787 20.9987 31.4104 21.6719 32.6465 22.7714L35.9464 19.4715C33.8628 17.5296 31.0756 16.332 28.0026 16.332C21.5597 16.332 16.3359 21.5558 16.3359 27.9987C16.3359 34.4416 21.5597 39.6654 28.0026 39.6654C34.4455 39.6654 39.6693 34.4416 39.6693 27.9987C39.6693 27.2164 39.5888 26.4529 39.4424 25.7138Z" fill="#FFC107"/>
<path d="M17.6797 22.5684L21.5128 25.3795C22.5499 22.8117 25.0618 20.9987 28.0012 20.9987C29.7856 20.9987 31.409 21.6719 32.6451 22.7714L35.945 19.4715C33.8614 17.5296 31.0742 16.332 28.0012 16.332C23.52 16.332 19.6339 18.8619 17.6797 22.5684Z" fill="#FF3D00"/>
<path d="M28.0034 39.6651C31.0169 39.6651 33.7551 38.5119 35.8254 36.6364L32.2145 33.5809C31.0432 34.4682 29.5872 34.9984 28.0034 34.9984C24.9689 34.9984 22.3924 33.0635 21.4217 30.3633L17.6172 33.2945C19.548 37.0728 23.4692 39.6651 28.0034 39.6651Z" fill="#4CAF50"/>
<path d="M39.4398 25.7164H38.5V25.668H28V30.3346H34.5934C34.1314 31.6396 33.292 32.7648 32.2093 33.5844C32.2099 33.5838 32.2105 33.5838 32.2111 33.5832L35.8219 36.6387C35.5664 36.8709 39.6667 33.8346 39.6667 28.0013C39.6667 27.2191 39.5862 26.4555 39.4398 25.7164Z" fill="#1976D2"/>
</svg>