<svg width="95" height="24" viewBox="0 0 95 24" fill="none" xmlns="http://www.w3.org/2000/svg">
<path d="M93.669 10.69C93.669 5.308 89.919 1.523 84.662 1.523C77.97 1.523 73.485 6.385 73.485 13.328C73.485 18.746 77.271 22.495 82.617 22.495C87.479 22.495 91.103 20.145 92.592 16.395H87.192C86.474 17.562 84.949 18.297 83.084 18.297C80.213 18.297 78.419 16.395 78.257 13.704H93.364C93.561 12.682 93.669 11.803 93.669 10.69ZM78.67 10.062C79.154 7.587 81.559 5.613 84.465 5.613C86.977 5.613 88.878 7.443 88.878 10.063H78.67V10.062ZM58.971 22.01L59.94 16.844C62.9 17.436 63.349 15.767 64.12 11.749L64.497 9.757C65.573 4.142 67.744 1.343 73.952 2.097L72.982 7.264C70.022 6.672 69.502 8.914 68.839 12.394L68.462 14.386C67.385 20.073 65.142 22.764 58.972 22.011L58.971 22.01ZM51.723 22.029L55.383 2.007H60.209L56.567 22.029H51.723ZM24.076 2.007H28.759L30.284 16.485L36.42 2.007H41.066L42.7 16.629L48.62 2.007H53.285L44.799 22.029H39.489L37.765 8.25L31.9 22.03H26.769L24.076 2.007Z" fill="#7633FF"/>
<path d="M6.58401 7.317L1.02301 12.627H10.477L11.464 10.314H6.67401L9.67001 7.317L7.93001 4.321H16.057L8.55701 22.029H11.374L19.86 2.007H3.46301L6.58401 7.317Z" fill="#21133D"/>
</svg>
